{
  "accessors": [
    {
      "name": "solid_003_1_0_positions",
      "componentType": 5126,
      "count": 1383,
      "min": [
        -21.953325271606445,
        6.123523235321045,
        -17.041799545288086
      ],
      "max": [
        21.81376075744629,
        40.367034912109375,
        16.224199295043945
      ],
      "type": "VEC3",
      "bufferView": 0,
      "byteOffset": 0
    },
    {
      "name": "solid_003_1_0_normals",
      "componentType": 5126,
      "count": 1383,
      "min": [
        -1,
        -1,
        -1
      ],
      "max": [
        1,
        1,
        1
      ],
      "type": "VEC3",
      "bufferView": 1,
      "byteOffset": 0
    },
    {
      "name": "solid_003_1_0_texcoords",
      "componentType": 5126,
      "count": 1383,
      "min": [
        0.21667100489139557,
        0.21696199476718903
      ],
      "max": [
        0.7833290100097656,
        0.7830389738082886
      ],
      "type": "VEC2",
      "bufferView": 2,
      "byteOffset": 0
    },
    {
      "name": "solid_003_1_0_indices",
      "componentType": 5123,
      "count": 1782,
      "min": [
        0
      ],
      "max": [
        1382
      ],
      "type": "SCALAR",
      "bufferView": 3,
      "byteOffset": 0
    },
    {
      "name": "solid_002_1_0_positions",
      "componentType": 5126,
      "count": 606,
      "min": [
        -22.50145149230957,
        11.609942436218262,
        -12.833800315856934
      ],
      "max": [
        22.364418029785156,
        35.139801025390625,
        16.161951065063477
      ],
      "type": "VEC3",
      "bufferView": 0,
      "byteOffset": 16596
    },
    {
      "name": "solid_002_1_0_normals",
      "componentType": 5126,
      "count": 606,
      "min": [
        -1,
        -1,
        -1
      ],
      "max": [
        1,
        1,
        1
      ],
      "type": "VEC3",
      "bufferView": 1,
      "byteOffset": 16596
    },
    {
      "name": "solid_002_1_0_texcoords",
      "componentType": 5126,
      "count": 606,
      "min": [
        0.1680310070514679,
        0.5708000063896179
      ],
      "max": [
        0.8319690227508545,
        0.8314999938011169
      ],
      "type": "VEC2",
      "bufferView": 2,
      "byteOffset": 11064
    },
    {
      "name": "solid_002_1_0_indices",
      "componentType": 5123,
      "count": 1854,
      "min": [
        0
      ],
      "max": [
        605
      ],
      "type": "SCALAR",
      "bufferView": 3,
      "byteOffset": 3564
    },
    {
      "name": "solid_001_1_0_positions",
      "componentType": 5126,
      "count": 1216,
      "min": [
        -25.75660514831543,
        0.019540999084711075,
        -18.950300216674805
      ],
      "max": [
        25.7421817779541,
        46.39186477661133,
        18.947500228881836
      ],
      "type": "VEC3",
      "bufferView": 0,
      "byteOffset": 23868
    },
    {
      "name": "solid_001_1_0_normals",
      "componentType": 5126,
      "count": 1216,
      "min": [
        -1,
        -1,
        -1
      ],
      "max": [
        1,
        1,
        1
      ],
      "type": "VEC3",
      "bufferView": 1,
      "byteOffset": 23868
    },
    {
      "name": "solid_001_1_0_texcoords",
      "componentType": 5126,
      "count": 1216,
      "min": [
        0.00009999999747378752,
        0.0004670000053010881
      ],
      "max": [
        0.9998999834060669,
        1
      ],
      "type": "VEC2",
      "bufferView": 2,
      "byteOffset": 15912
    },
    {
      "name": "solid_001_1_0_indices",
      "componentType": 5123,
      "count": 2760,
      "min": [
        0
      ],
      "max": [
        1215
      ],
      "type": "SCALAR",
      "bufferView": 3,
      "byteOffset": 7272
    }
  ],
  "asset": {
    "generator": "obj2gltf",
    "version": "2.0"
  },
  "buffers": [
    {
      "name": "model-r",
      "byteLength": 115352,
      "uri": "model-r.bin"
    }
  ],
  "bufferViews": [
    {
      "name": "bufferView_0",
      "buffer": 0,
      "byteLength": 38460,
      "byteOffset": 0,
      "byteStride": 12,
      "target": 34962
    },
    {
      "name": "bufferView_1",
      "buffer": 0,
      "byteLength": 38460,
      "byteOffset": 38460,
      "byteStride": 12,
      "target": 34962
    },
    {
      "name": "bufferView_2",
      "buffer": 0,
      "byteLength": 25640,
      "byteOffset": 76920,
      "byteStride": 8,
      "target": 34962
    },
    {
      "name": "bufferView_3",
      "buffer": 0,
      "byteLength": 12792,
      "byteOffset": 102560,
      "target": 34963
    }
  ],
  "materials": [
    {
      "name": "Default_material",
      "pbrMetallicRoughness": {
        "baseColorFactor": [
          0.752941,
          0.752941,
          0.752941,
          1
        ],
        "metallicFactor": 0,
        "roughnessFactor": 0.4
      },
      "emissiveFactor": [
        0,
        0,
        0
      ],
      "alphaMode": "OPAQUE",
      "doubleSided": false
    }
  ],
  "meshes": [
    {
      "name": "solid_003_1",
      "primitives": [
        {
          "attributes": {
            "POSITION": 0,
            "NORMAL": 1,
            "TEXCOORD_0": 2
          },
          "indices": 3,
          "material": 0,
          "mode": 4
        }
      ]
    },
    {
      "name": "solid_002_1",
      "primitives": [
        {
          "attributes": {
            "POSITION": 4,
            "NORMAL": 5,
            "TEXCOORD_0": 6
          },
          "indices": 7,
          "material": 0,
          "mode": 4
        }
      ]
    },
    {
      "name": "solid_001_1",
      "primitives": [
        {
          "attributes": {
            "POSITION": 8,
            "NORMAL": 9,
            "TEXCOORD_0": 10
          },
          "indices": 11,
          "material": 0,
          "mode": 4
        }
      ]
    }
  ],
  "nodes": [
    {
      "name": "solid_003",
      "mesh": 0
    },
    {
      "name": "solid_002",
      "mesh": 1
    },
    {
      "name": "solid_001",
      "mesh": 2
    }
  ],
  "scene": 0,
  "scenes": [
    {
      "nodes": [
        0,
        1,
        2
      ]
    }
  ]
}
