{
  "accessors": [
    {
      "name": "solid_001_1_0_positions",
      "componentType": 5126,
      "count": 1684,
      "min": [
        -2.1463000774383545,
        76.08580017089844,
        -19.010099411010742
      ],
      "max": [
        1.374899983406067,
        76.9197998046875,
        -18.91200065612793
      ],
      "type": "VEC3",
      "bufferView": 0,
      "byteOffset": 0
    },
    {
      "name": "solid_001_1_0_normals",
      "componentType": 5126,
      "count": 1684,
      "min": [
        -1,
        -1,
        0
      ],
      "max": [
        1,
        1,
        1
      ],
      "type": "VEC3",
      "bufferView": 1,
      "byteOffset": 0
    },
    {
      "name": "solid_001_1_0_texcoords",
      "componentType": 5126,
      "count": 1684,
      "min": [
        0,
        0
      ],
      "max": [
        1,
        1
      ],
      "type": "VEC2",
      "bufferView": 2,
      "byteOffset": 0
    },
    {
      "name": "solid_001_1_0_indices",
      "componentType": 5123,
      "count": 3006,
      "min": [
        0
      ],
      "max": [
        1683
      ],
      "type": "SCALAR",
      "bufferView": 3,
      "byteOffset": 0
    },
    {
      "name": "solid_002_1_0_positions",
      "componentType": 5126,
      "count": 4,
      "min": [
        -70.14459991455078,
        77.40709686279297,
        -19.787200927734375
      ],
      "max": [
        69.37310028076172,
        153.50799560546875,
        -19.787200927734375
      ],
      "type": "VEC3",
      "bufferView": 0,
      "byteOffset": 20208
    },
    {
      "name": "solid_002_1_0_normals",
      "componentType": 5126,
      "count": 4,
      "min": [
        0,
        0,
        1
      ],
      "max": [
        0,
        0,
        1
      ],
      "type": "VEC3",
      "bufferView": 1,
      "byteOffset": 20208
    },
    {
      "name": "solid_002_1_0_texcoords",
      "componentType": 5126,
      "count": 4,
      "min": [
        0,
        0
      ],
      "max": [
        1,
        1
      ],
      "type": "VEC2",
      "bufferView": 2,
      "byteOffset": 13472
    },
    {
      "name": "solid_002_1_0_indices",
      "componentType": 5123,
      "count": 6,
      "min": [
        0
      ],
      "max": [
        3
      ],
      "type": "SCALAR",
      "bufferView": 3,
      "byteOffset": 6012
    },
    {
      "name": "solid_003_1_0_positions",
      "componentType": 5126,
      "count": 1386,
      "min": [
        66.95179748535156,
        47.96889877319336,
        -3.7785699367523193
      ],
      "max": [
        83.8291015625,
        63.314701080322266,
        5.197939872741699
      ],
      "type": "VEC3",
      "bufferView": 0,
      "byteOffset": 20256
    },
    {
      "name": "solid_003_1_0_normals",
      "componentType": 5126,
      "count": 1386,
      "min": [
        -0.998887300491333,
        -1,
        -0.9989884495735168
      ],
      "max": [
        0.9997760057449341,
        0.9999809861183167,
        0.9977191090583801
      ],
      "type": "VEC3",
      "bufferView": 1,
      "byteOffset": 20256
    },
    {
      "name": "solid_003_1_0_texcoords",
      "componentType": 5126,
      "count": 1386,
      "min": [
        -0.025323500856757164,
        -0.03606000170111656
      ],
      "max": [
        1.0917199850082397,
        1.0477807521820068
      ],
      "type": "VEC2",
      "bufferView": 2,
      "byteOffset": 13504
    },
    {
      "name": "solid_003_1_0_indices",
      "componentType": 5123,
      "count": 7827,
      "min": [
        0
      ],
      "max": [
        1385
      ],
      "type": "SCALAR",
      "bufferView": 3,
      "byteOffset": 6024
    },
    {
      "name": "solid_004_1_0_positions",
      "componentType": 5126,
      "count": 1154,
      "min": [
        68.6281967163086,
        55.21369934082031,
        -2.5933001041412354
      ],
      "max": [
        82.2615966796875,
        62.64860153198242,
        3.7139999866485596
      ],
      "type": "VEC3",
      "bufferView": 0,
      "byteOffset": 36888
    },
    {
      "name": "solid_004_1_0_normals",
      "componentType": 5126,
      "count": 1154,
      "min": [
        0,
        1,
        0
      ],
      "max": [
        0,
        1,
        0
      ],
      "type": "VEC3",
      "bufferView": 1,
      "byteOffset": 36888
    },
    {
      "name": "solid_004_1_0_texcoords",
      "componentType": 5126,
      "count": 1154,
      "min": [
        0.0005000000237487257,
        0.0005000000237487257
      ],
      "max": [
        0.9994999766349792,
        0.9994999766349792
      ],
      "type": "VEC2",
      "bufferView": 2,
      "byteOffset": 24592
    },
    {
      "name": "solid_004_1_0_indices",
      "componentType": 5123,
      "count": 6624,
      "min": [
        0
      ],
      "max": [
        1153
      ],
      "type": "SCALAR",
      "bufferView": 3,
      "byteOffset": 21680
    },
    {
      "name": "solid_005_1_0_positions",
      "componentType": 5126,
      "count": 28403,
      "min": [
        68.73889923095703,
        55.11249923706055,
        -2.54613995552063
      ],
      "max": [
        82.21849822998047,
        63.33190155029297,
        3.5203499794006348
      ],
      "type": "VEC3",
      "bufferView": 0,
      "byteOffset": 50736
    },
    {
      "name": "solid_005_1_0_normals",
      "componentType": 5126,
      "count": 28403,
      "min": [
        -0.9997096657752991,
        -0.9999281764030457,
        -0.9999639391899109
      ],
      "max": [
        0.9999959468841553,
        0.999998152256012,
        0.9998845458030701
      ],
      "type": "VEC3",
      "bufferView": 1,
      "byteOffset": 50736
    },
    {
      "name": "solid_005_1_0_texcoords",
      "componentType": 5126,
      "count": 28403,
      "min": [
        -0.024952000007033348,
        -0.06573999673128128
      ],
      "max": [
        1.0643199682235718,
        1.0459970235824585
      ],
      "type": "VEC2",
      "bufferView": 2,
      "byteOffset": 33824
    },
    {
      "name": "solid_005_1_0_indices",
      "componentType": 5123,
      "count": 46584,
      "min": [
        0
      ],
      "max": [
        28402
      ],
      "type": "SCALAR",
      "bufferView": 3,
      "byteOffset": 34928
    },
    {
      "name": "solid_006_1_0_positions",
      "componentType": 5126,
      "count": 4699,
      "min": [
        69.88020324707031,
        55.36640167236328,
        -1.5018099546432495
      ],
      "max": [
        80.6676025390625,
        72.7594985961914,
        2.0435400009155273
      ],
      "type": "VEC3",
      "bufferView": 0,
      "byteOffset": 391572
    },
    {
      "name": "solid_006_1_0_normals",
      "componentType": 5126,
      "count": 4699,
      "min": [
        -0.9999637007713318,
        -0.972623884677887,
        -0.9997201561927795
      ],
      "max": [
        0.9999938607215881,
        0.99629145860672,
        0.9999763369560242
      ],
      "type": "VEC3",
      "bufferView": 1,
      "byteOffset": 391572
    },
    {
      "name": "solid_006_1_0_texcoords",
      "componentType": 5126,
      "count": 4699,
      "min": [
        0.11620000004768372,
        0.019682999700307846
      ],
      "max": [
        0.9559999704360962,
        0.9836673140525818
      ],
      "type": "VEC2",
      "bufferView": 2,
      "byteOffset": 261048
    },
    {
      "name": "solid_006_1_0_indices",
      "componentType": 5123,
      "count": 26022,
      "min": [
        0
      ],
      "max": [
        4698
      ],
      "type": "SCALAR",
      "bufferView": 3,
      "byteOffset": 128096
    },
    {
      "name": "solid_007_1_0_positions",
      "componentType": 5126,
      "count": 1776,
      "min": [
        51.927398681640625,
        48.01639938354492,
        -6.0107598304748535
      ],
      "max": [
        62.235599517822266,
        58.32229995727539,
        4.29626989364624
      ],
      "type": "VEC3",
      "bufferView": 0,
      "byteOffset": 447960
    },
    {
      "name": "solid_007_1_0_normals",
      "componentType": 5126,
      "count": 1776,
      "min": [
        -1,
        -1,
        -1
      ],
      "max": [
        1,
        0.9999762773513794,
        1
      ],
      "type": "VEC3",
      "bufferView": 1,
      "byteOffset": 447960
    },
    {
      "name": "solid_007_1_0_texcoords",
      "componentType": 5126,
      "count": 1776,
      "min": [
        -1.9510999917984009,
        -0.459199994802475
      ],
      "max": [
        1.0722600221633911,
        2.357300043106079
      ],
      "type": "VEC2",
      "bufferView": 2,
      "byteOffset": 298640
    },
    {
      "name": "solid_007_1_0_indices",
      "componentType": 5123,
      "count": 7818,
      "min": [
        0
      ],
      "max": [
        1775
      ],
      "type": "SCALAR",
      "bufferView": 3,
      "byteOffset": 180140
    },
    {
      "name": "solid_008_1_0_positions",
      "componentType": 5126,
      "count": 1324,
      "min": [
        52.52989959716797,
        57.5723991394043,
        -5.408480167388916
      ],
      "max": [
        61.6343994140625,
        59.15399932861328,
        3.695770025253296
      ],
      "type": "VEC3",
      "bufferView": 0,
      "byteOffset": 469272
    },
    {
      "name": "solid_008_1_0_normals",
      "componentType": 5126,
      "count": 1324,
      "min": [
        -0.5942781567573547,
        0.7311153411865234,
        -0.6617797017097473
      ],
      "max": [
        0.6400267481803894,
        0.999998152256012,
        0.5834921598434448
      ],
      "type": "VEC3",
      "bufferView": 1,
      "byteOffset": 469272
    },
    {
      "name": "solid_008_1_0_texcoords",
      "componentType": 5126,
      "count": 1324,
      "min": [
        0.00047937300405465066,
        0.0003809999907389283
      ],
      "max": [
        0.999638020992279,
        0.9995574951171875
      ],
      "type": "VEC2",
      "bufferView": 2,
      "byteOffset": 312848
    },
    {
      "name": "solid_008_1_0_indices",
      "componentType": 5123,
      "count": 7554,
      "min": [
        0
      ],
      "max": [
        1323
      ],
      "type": "SCALAR",
      "bufferView": 3,
      "byteOffset": 195776
    },
    {
      "name": "solid_009_1_0_positions",
      "componentType": 5126,
      "count": 5785,
      "min": [
        51.53160095214844,
        57.98789978027344,
        -5.794459819793701
      ],
      "max": [
        62.38880157470703,
        64.84030151367188,
        4.598020076751709
      ],
      "type": "VEC3",
      "bufferView": 0,
      "byteOffset": 485160
    },
    {
      "name": "solid_009_1_0_normals",
      "componentType": 5126,
      "count": 5785,
      "min": [
        -0.9978023767471313,
        -0.9999738931655884,
        -0.9991655945777893
      ],
      "max": [
        0.9972141981124878,
        0.9999645352363586,
        0.9997610449790955
      ],
      "type": "VEC3",
      "bufferView": 1,
      "byteOffset": 485160
    },
    {
      "name": "solid_009_1_0_texcoords",
      "componentType": 5126,
      "count": 5785,
      "min": [
        0.009397320449352264,
        0.009728999808430672
      ],
      "max": [
        0.9872120022773743,
        0.9975667595863342
      ],
      "type": "VEC2",
      "bufferView": 2,
      "byteOffset": 323440
    },
    {
      "name": "solid_009_1_0_indices",
      "componentType": 5123,
      "count": 31506,
      "min": [
        0
      ],
      "max": [
        5784
      ],
      "type": "SCALAR",
      "bufferView": 3,
      "byteOffset": 210884
    },
    {
      "name": "solid_010_1_0_positions",
      "componentType": 5126,
      "count": 560,
      "min": [
        -22.657699584960938,
        35.499000549316406,
        -4.5345001220703125
      ],
      "max": [
        -1.5297000408172607,
        38.81549835205078,
        14.039199829101562
      ],
      "type": "VEC3",
      "bufferView": 0,
      "byteOffset": 554580
    },
    {
      "name": "solid_010_1_0_normals",
      "componentType": 5126,
      "count": 560,
      "min": [
        -0.9668694138526917,
        -1,
        -0.9982991218566895
      ],
      "max": [
        0.9716582298278809,
        1,
        0.9871507287025452
      ],
      "type": "VEC3",
      "bufferView": 1,
      "byteOffset": 554580
    },
    {
      "name": "solid_010_1_0_texcoords",
      "componentType": 5126,
      "count": 560,
      "min": [
        0.0008999999845400453,
        0.001500000013038516
      ],
      "max": [
        0.9990000128746033,
        0.9986000061035156
      ],
      "type": "VEC2",
      "bufferView": 2,
      "byteOffset": 369720
    },
    {
      "name": "solid_010_1_0_indices",
      "componentType": 5123,
      "count": 2568,
      "min": [
        0
      ],
      "max": [
        559
      ],
      "type": "SCALAR",
      "bufferView": 3,
      "byteOffset": 273896
    },
    {
      "name": "solid_011_1_0_positions",
      "componentType": 5126,
      "count": 1378,
      "min": [
        -72.8926010131836,
        48.00410079956055,
        -8.652339935302734
      ],
      "max": [
        -57.0526008605957,
        66.06839752197266,
        7.191619873046875
      ],
      "type": "VEC3",
      "bufferView": 0,
      "byteOffset": 561300
    },
    {
      "name": "solid_011_1_0_normals",
      "componentType": 5126,
      "count": 1378,
      "min": [
        -0.9982249140739441,
        -1,
        -0.9994838237762451
      ],
      "max": [
        0.9996866583824158,
        1,
        0.9993901252746582
      ],
      "type": "VEC3",
      "bufferView": 1,
      "byteOffset": 561300
    },
    {
      "name": "solid_011_1_0_texcoords",
      "componentType": 5126,
      "count": 1378,
      "min": [
        -0.25,
        0.027310000732541084
      ],
      "max": [
        1.005079984664917,
        0.9402056932449341
      ],
      "type": "VEC2",
      "bufferView": 2,
      "byteOffset": 374200
    },
    {
      "name": "solid_011_1_0_indices",
      "componentType": 5123,
      "count": 7878,
      "min": [
        0
      ],
      "max": [
        1377
      ],
      "type": "SCALAR",
      "bufferView": 3,
      "byteOffset": 279032
    },
    {
      "name": "solid_012_1_0_positions",
      "componentType": 5126,
      "count": 1372,
      "min": [
        -78.65229797363281,
        47.96849822998047,
        3.208669900894165
      ],
      "max": [
        -69.6321029663086,
        56.23830032348633,
        12.266200065612793
      ],
      "type": "VEC3",
      "bufferView": 0,
      "byteOffset": 577836
    },
    {
      "name": "solid_012_1_0_normals",
      "componentType": 5126,
      "count": 1372,
      "min": [
        -0.9998830556869507,
        -1,
        -0.9972082376480103
      ],
      "max": [
        0.9972037672996521,
        1,
        0.9997313022613525
      ],
      "type": "VEC3",
      "bufferView": 1,
      "byteOffset": 577836
    },
    {
      "name": "solid_012_1_0_texcoords",
      "componentType": 5126,
      "count": 1372,
      "min": [
        -0.25,
        0.14783300459384918
      ],
      "max": [
        1.0539699792861938,
        0.8505470156669617
      ],
      "type": "VEC2",
      "bufferView": 2,
      "byteOffset": 385224
    },
    {
      "name": "solid_012_1_0_indices",
      "componentType": 5123,
      "count": 7878,
      "min": [
        0
      ],
      "max": [
        1371
      ],
      "type": "SCALAR",
      "bufferView": 3,
      "byteOffset": 294788
    },
    {
      "name": "solid_013_1_0_positions",
      "componentType": 5126,
      "count": 54,
      "min": [
        -69.27079772949219,
        39.20429992675781,
        -8.026700019836426
      ],
      "max": [
        -50.525299072265625,
        40.21369934082031,
        8.916399955749512
      ],
      "type": "VEC3",
      "bufferView": 0,
      "byteOffset": 594300
    },
    {
      "name": "solid_013_1_0_normals",
      "componentType": 5126,
      "count": 54,
      "min": [
        0,
        -1,
        0
      ],
      "max": [
        0,
        1,
        1
      ],
      "type": "VEC3",
      "bufferView": 1,
      "byteOffset": 594300
    },
    {
      "name": "solid_013_1_0_texcoords",
      "componentType": 5126,
      "count": 54,
      "min": [
        0.00039999998989515007,
        0.0006000000284984708
      ],
      "max": [
        0.9998000264167786,
        0.9995999932289124
      ],
      "type": "VEC2",
      "bufferView": 2,
      "byteOffset": 396200
    },
    {
      "name": "solid_013_1_0_indices",
      "componentType": 5123,
      "count": 120,
      "min": [
        0
      ],
      "max": [
        53
      ],
      "type": "SCALAR",
      "bufferView": 3,
      "byteOffset": 310544
    },
    {
      "name": "solid_014_1_0_positions",
      "componentType": 5126,
      "count": 480,
      "min": [
        -68.9103012084961,
        42.088199615478516,
        -6.044000148773193
      ],
      "max": [
        -50.885799407958984,
        43.818599700927734,
        6.933700084686279
      ],
      "type": "VEC3",
      "bufferView": 0,
      "byteOffset": 594948
    },
    {
      "name": "solid_014_1_0_normals",
      "componentType": 5126,
      "count": 480,
      "min": [
        -1,
        -1,
        -1
      ],
      "max": [
        1,
        1,
        0.99803227186203
      ],
      "type": "VEC3",
      "bufferView": 1,
      "byteOffset": 594948
    },
    {
      "name": "solid_014_1_0_texcoords",
      "componentType": 5126,
      "count": 480,
      "min": [
        0.0003000000142492354,
        0.00039999998989515007
      ],
      "max": [
        0.9997000098228455,
        0.9995999932289124
      ],
      "type": "VEC2",
      "bufferView": 2,
      "byteOffset": 396632
    },
    {
      "name": "solid_014_1_0_indices",
      "componentType": 5123,
      "count": 2178,
      "min": [
        0
      ],
      "max": [
        479
      ],
      "type": "SCALAR",
      "bufferView": 3,
      "byteOffset": 310784
    },
    {
      "name": "solid_015_1_0_positions",
      "componentType": 5126,
      "count": 6738,
      "min": [
        -89.21749877929688,
        8,
        -17.834699630737305
      ],
      "max": [
        90.78250122070312,
        48,
        20.165300369262695
      ],
      "type": "VEC3",
      "bufferView": 0,
      "byteOffset": 600708
    },
    {
      "name": "solid_015_1_0_normals",
      "componentType": 5126,
      "count": 6738,
      "min": [
        -1,
        -1,
        -1
      ],
      "max": [
        1,
        1,
        1
      ],
      "type": "VEC3",
      "bufferView": 1,
      "byteOffset": 600708
    },
    {
      "name": "solid_015_1_0_texcoords",
      "componentType": 5126,
      "count": 6738,
      "min": [
        -4.4818501472473145,
        -0.13022999465465546
      ],
      "max": [
        5.482170104980469,
        1.3626060485839844
      ],
      "type": "VEC2",
      "bufferView": 2,
      "byteOffset": 400472
    },
    {
      "name": "solid_015_1_0_indices",
      "componentType": 5123,
      "count": 7866,
      "min": [
        0
      ],
      "max": [
        6737
      ],
      "type": "SCALAR",
      "bufferView": 3,
      "byteOffset": 315140
    },
    {
      "name": "solid_016_1_0_positions",
      "componentType": 5126,
      "count": 6618,
      "min": [
        -89.21749877929688,
        0,
        -15.834699630737305
      ],
      "max": [
        90.78260040283203,
        46,
        20.165300369262695
      ],
      "type": "VEC3",
      "bufferView": 0,
      "byteOffset": 681564
    },
    {
      "name": "solid_016_1_0_normals",
      "componentType": 5126,
      "count": 6618,
      "min": [
        -1,
        -1,
        -1
      ],
      "max": [
        1,
        1,
        1
      ],
      "type": "VEC3",
      "bufferView": 1,
      "byteOffset": 681564
    },
    {
      "name": "solid_016_1_0_texcoords",
      "componentType": 5126,
      "count": 6618,
      "min": [
        -0.49942100048065186,
        -0.06486999988555908
      ],
      "max": [
        1.497730016708374,
        1.6349999904632568
      ],
      "type": "VEC2",
      "bufferView": 2,
      "byteOffset": 454376
    },
    {
      "name": "solid_016_1_0_indices",
      "componentType": 5123,
      "count": 7842,
      "min": [
        0
      ],
      "max": [
        6617
      ],
      "type": "SCALAR",
      "bufferView": 3,
      "byteOffset": 330872
    },
    {
      "name": "solid_017_1_0_positions",
      "componentType": 5126,
      "count": 6800,
      "min": [
        -89.21739959716797,
        8.100000381469727,
        20.165300369262695
      ],
      "max": [
        90.78260040283203,
        35.5,
        22.165300369262695
      ],
      "type": "VEC3",
      "bufferView": 0,
      "byteOffset": 760980
    },
    {
      "name": "solid_017_1_0_normals",
      "componentType": 5126,
      "count": 6800,
      "min": [
        -1,
        -1,
        -1
      ],
      "max": [
        1,
        1,
        1
      ],
      "type": "VEC3",
      "bufferView": 1,
      "byteOffset": 760980
    },
    {
      "name": "solid_017_1_0_texcoords",
      "componentType": 5126,
      "count": 6800,
      "min": [
        -2.959399938583374,
        -0.3452000021934509
      ],
      "max": [
        2.2054500579833984,
        1.3451999425888062
      ],
      "type": "VEC2",
      "bufferView": 2,
      "byteOffset": 507320
    },
    {
      "name": "solid_017_1_0_indices",
      "componentType": 5123,
      "count": 7884,
      "min": [
        0
      ],
      "max": [
        6799
      ],
      "type": "SCALAR",
      "bufferView": 3,
      "byteOffset": 346556
    },
    {
      "name": "solid_018_1_0_positions",
      "componentType": 5126,
      "count": 8,
      "min": [
        -89.21749877929688,
        8.600000381469727,
        19.665300369262695
      ],
      "max": [
        90.78250122070312,
        35,
        19.665300369262695
      ],
      "type": "VEC3",
      "bufferView": 0,
      "byteOffset": 842580
    },
    {
      "name": "solid_018_1_0_normals",
      "componentType": 5126,
      "count": 8,
      "min": [
        0,
        0,
        1
      ],
      "max": [
        0,
        0,
        1
      ],
      "type": "VEC3",
      "bufferView": 1,
      "byteOffset": 842580
    },
    {
      "name": "solid_018_1_0_texcoords",
      "componentType": 5126,
      "count": 8,
      "min": [
        0,
        0
      ],
      "max": [
        1,
        1
      ],
      "type": "VEC2",
      "bufferView": 2,
      "byteOffset": 561720
    },
    {
      "name": "solid_018_1_0_indices",
      "componentType": 5123,
      "count": 18,
      "min": [
        0
      ],
      "max": [
        7
      ],
      "type": "SCALAR",
      "bufferView": 3,
      "byteOffset": 362324
    },
    {
      "name": "solid_019_1_0_positions",
      "componentType": 5126,
      "count": 54,
      "min": [
        -71.7300033569336,
        75.82160186767578,
        -22.165300369262695
      ],
      "max": [
        70.95850372314453,
        155.09300231933594,
        -18.99449920654297
      ],
      "type": "VEC3",
      "bufferView": 0,
      "byteOffset": 842676
    },
    {
      "name": "solid_019_1_0_normals",
      "componentType": 5126,
      "count": 54,
      "min": [
        -1,
        -1,
        -1
      ],
      "max": [
        1,
        1,
        1
      ],
      "type": "VEC3",
      "bufferView": 1,
      "byteOffset": 842676
    },
    {
      "name": "solid_019_1_0_texcoords",
      "componentType": 5126,
      "count": 54,
      "min": [
        0,
        0
      ],
      "max": [
        1,
        1
      ],
      "type": "VEC2",
      "bufferView": 2,
      "byteOffset": 561784
    },
    {
      "name": "solid_019_1_0_indices",
      "componentType": 5123,
      "count": 78,
      "min": [
        0
      ],
      "max": [
        53
      ],
      "type": "SCALAR",
      "bufferView": 3,
      "byteOffset": 362360
    },
    {
      "name": "solid_020_1_0_positions",
      "componentType": 5126,
      "count": 42,
      "min": [
        -20.717599868774414,
        40.185298919677734,
        -2.7218000888824463
      ],
      "max": [
        -3.455399990081787,
        41.77149963378906,
        12.246199607849121
      ],
      "type": "VEC3",
      "bufferView": 0,
      "byteOffset": 843324
    },
    {
      "name": "solid_020_1_0_normals",
      "componentType": 5126,
      "count": 42,
      "min": [
        0,
        -1,
        0
      ],
      "max": [
        0.2588079571723938,
        1,
        0.9659287929534912
      ],
      "type": "VEC3",
      "bufferView": 1,
      "byteOffset": 843324
    },
    {
      "name": "solid_020_1_0_texcoords",
      "componentType": 5126,
      "count": 42,
      "min": [
        0.00019999999494757503,
        0.0003000000142492354
      ],
      "max": [
        0.9998000264167786,
        0.9997000098228455
      ],
      "type": "VEC2",
      "bufferView": 2,
      "byteOffset": 562216
    },
    {
      "name": "solid_020_1_0_indices",
      "componentType": 5123,
      "count": 120,
      "min": [
        0
      ],
      "max": [
        41
      ],
      "type": "SCALAR",
      "bufferView": 3,
      "byteOffset": 362516
    },
    {
      "name": "solid_021_1_0_positions",
      "componentType": 5126,
      "count": 42,
      "min": [
        -20.79840087890625,
        38.81549835205078,
        -2.4202001094818115
      ],
      "max": [
        -3.3745999336242676,
        40.185298919677734,
        11.944600105285645
      ],
      "type": "VEC3",
      "bufferView": 0,
      "byteOffset": 843828
    },
    {
      "name": "solid_021_1_0_normals",
      "componentType": 5126,
      "count": 42,
      "min": [
        0,
        -1,
        0
      ],
      "max": [
        0.2588079571723938,
        1,
        0.9659287929534912
      ],
      "type": "VEC3",
      "bufferView": 1,
      "byteOffset": 843828
    },
    {
      "name": "solid_021_1_0_texcoords",
      "componentType": 5126,
      "count": 42,
      "min": [
        0.00019999999494757503,
        0.00019999999494757503
      ],
      "max": [
        0.9998999834060669,
        0.9998000264167786
      ],
      "type": "VEC2",
      "bufferView": 2,
      "byteOffset": 562552
    },
    {
      "name": "solid_021_1_0_indices",
      "componentType": 5123,
      "count": 120,
      "min": [
        0
      ],
      "max": [
        41
      ],
      "type": "SCALAR",
      "bufferView": 3,
      "byteOffset": 362756
    },
    {
      "name": "solid_022_1_0_positions",
      "componentType": 5126,
      "count": 42,
      "min": [
        -69.9917984008789,
        40.21369934082031,
        -7.558000087738037
      ],
      "max": [
        -49.804298400878906,
        42.088199615478516,
        8.447699546813965
      ],
      "type": "VEC3",
      "bufferView": 0,
      "byteOffset": 844332
    },
    {
      "name": "solid_022_1_0_normals",
      "componentType": 5126,
      "count": 42,
      "min": [
        0,
        -1,
        0
      ],
      "max": [
        0,
        1,
        1
      ],
      "type": "VEC3",
      "bufferView": 1,
      "byteOffset": 844332
    },
    {
      "name": "solid_022_1_0_texcoords",
      "componentType": 5126,
      "count": 42,
      "min": [
        0.00019999999494757503,
        0.0003000000142492354
      ],
      "max": [
        0.9998000264167786,
        0.9997000098228455
      ],
      "type": "VEC2",
      "bufferView": 2,
      "byteOffset": 562888
    },
    {
      "name": "solid_022_1_0_indices",
      "componentType": 5123,
      "count": 120,
      "min": [
        0
      ],
      "max": [
        41
      ],
      "type": "SCALAR",
      "bufferView": 3,
      "byteOffset": 362996
    },
    {
      "name": "solid_023_1_0_positions",
      "componentType": 5126,
      "count": 80,
      "min": [
        -69.27079772949219,
        39.20429992675781,
        -8.026700019836426
      ],
      "max": [
        -50.525299072265625,
        40.21369934082031,
        8.916299819946289
      ],
      "type": "VEC3",
      "bufferView": 0,
      "byteOffset": 844836
    },
    {
      "name": "solid_023_1_0_normals",
      "componentType": 5126,
      "count": 80,
      "min": [
        -1,
        -0.00020000006770715117,
        -1
      ],
      "max": [
        1,
        0,
        0.00009999999747378752
      ],
      "type": "VEC3",
      "bufferView": 1,
      "byteOffset": 844836
    },
    {
      "name": "solid_023_1_0_texcoords",
      "componentType": 5126,
      "count": 80,
      "min": [
        0.00009999999747378752,
        0.00039999998989515007
      ],
      "max": [
        1,
        0.9995999932289124
      ],
      "type": "VEC2",
      "bufferView": 2,
      "byteOffset": 563224
    },
    {
      "name": "solid_023_1_0_indices",
      "componentType": 5123,
      "count": 120,
      "min": [
        0
      ],
      "max": [
        79
      ],
      "type": "SCALAR",
      "bufferView": 3,
      "byteOffset": 363236
    },
    {
      "name": "solid_024_1_0_positions",
      "componentType": 5126,
      "count": 480,
      "min": [
        -71.43370056152344,
        37.90660095214844,
        -7.7743000984191895
      ],
      "max": [
        -48.362300872802734,
        39.20429992675781,
        8.663999557495117
      ],
      "type": "VEC3",
      "bufferView": 0,
      "byteOffset": 845796
    },
    {
      "name": "solid_024_1_0_normals",
      "componentType": 5126,
      "count": 480,
      "min": [
        -1,
        -1,
        -1
      ],
      "max": [
        1,
        1,
        0.9974976181983948
      ],
      "type": "VEC3",
      "bufferView": 1,
      "byteOffset": 845796
    },
    {
      "name": "solid_024_1_0_texcoords",
      "componentType": 5126,
      "count": 480,
      "min": [
        0.0003000000142492354,
        0.00039999998989515007
      ],
      "max": [
        0.9997000098228455,
        0.9995999932289124
      ],
      "type": "VEC2",
      "bufferView": 2,
      "byteOffset": 563864
    },
    {
      "name": "solid_024_1_0_indices",
      "componentType": 5123,
      "count": 2178,
      "min": [
        0
      ],
      "max": [
        479
      ],
      "type": "SCALAR",
      "bufferView": 3,
      "byteOffset": 363476
    },
    {
      "name": "solid_025_1_0_positions",
      "componentType": 5126,
      "count": 42,
      "min": [
        -68.9103012084961,
        35.52730178833008,
        -6.3684000968933105
      ],
      "max": [
        -50.885799407958984,
        37.90660095214844,
        7.2581000328063965
      ],
      "type": "VEC3",
      "bufferView": 0,
      "byteOffset": 851556
    },
    {
      "name": "solid_025_1_0_normals",
      "componentType": 5126,
      "count": 42,
      "min": [
        0,
        -1,
        0
      ],
      "max": [
        0,
        1,
        1
      ],
      "type": "VEC3",
      "bufferView": 1,
      "byteOffset": 851556
    },
    {
      "name": "solid_025_1_0_texcoords",
      "componentType": 5126,
      "count": 42,
      "min": [
        0.00019999999494757503,
        0.0003000000142492354
      ],
      "max": [
        0.9998000264167786,
        0.9997000098228455
      ],
      "type": "VEC2",
      "bufferView": 2,
      "byteOffset": 567704
    },
    {
      "name": "solid_025_1_0_indices",
      "componentType": 5123,
      "count": 120,
      "min": [
        0
      ],
      "max": [
        41
      ],
      "type": "SCALAR",
      "bufferView": 3,
      "byteOffset": 367832
    }
  ],
  "asset": {
    "generator": "obj2gltf",
    "version": "2.0"
  },
  "buffers": [
    {
      "name": "model-r",
      "byteLength": 2640232,
      "uri": "model-r.bin"
    }
  ],
  "bufferViews": [
    {
      "name": "bufferView_0",
      "buffer": 0,
      "byteLength": 852060,
      "byteOffset": 0,
      "byteStride": 12,
      "target": 34962
    },
    {
      "name": "bufferView_1",
      "buffer": 0,
      "byteLength": 852060,
      "byteOffset": 852060,
      "byteStride": 12,
      "target": 34962
    },
    {
      "name": "bufferView_2",
      "buffer": 0,
      "byteLength": 568040,
      "byteOffset": 1704120,
      "byteStride": 8,
      "target": 34962
    },
    {
      "name": "bufferView_3",
      "buffer": 0,
      "byteLength": 368072,
      "byteOffset": 2272160,
      "target": 34963
    }
  ],
  "materials": [
    {
      "name": "default",
      "pbrMetallicRoughness": {
        "baseColorFactor": [
          0.5,
          0.5,
          0.5,
          1
        ],
        "metallicFactor": 0,
        "roughnessFactor": 1
      },
      "emissiveFactor": [
        0,
        0,
        0
      ],
      "alphaMode": "OPAQUE",
      "doubleSided": false
    }
  ],
  "meshes": [
    {
      "name": "solid_001_1",
      "primitives": [
        {
          "attributes": {
            "POSITION": 0,
            "NORMAL": 1,
            "TEXCOORD_0": 2
          },
          "indices": 3,
          "material": 0,
          "mode": 4
        }
      ]
    },
    {
      "name": "solid_002_1",
      "primitives": [
        {
          "attributes": {
            "POSITION": 4,
            "NORMAL": 5,
            "TEXCOORD_0": 6
          },
          "indices": 7,
          "material": 0,
          "mode": 4
        }
      ]
    },
    {
      "name": "solid_003_1",
      "primitives": [
        {
          "attributes": {
            "POSITION": 8,
            "NORMAL": 9,
            "TEXCOORD_0": 10
          },
          "indices": 11,
          "material": 0,
          "mode": 4
        }
      ]
    },
    {
      "name": "solid_004_1",
      "primitives": [
        {
          "attributes": {
            "POSITION": 12,
            "NORMAL": 13,
            "TEXCOORD_0": 14
          },
          "indices": 15,
          "material": 0,
          "mode": 4
        }
      ]
    },
    {
      "name": "solid_005_1",
      "primitives": [
        {
          "attributes": {
            "POSITION": 16,
            "NORMAL": 17,
            "TEXCOORD_0": 18
          },
          "indices": 19,
          "material": 0,
          "mode": 4
        }
      ]
    },
    {
      "name": "solid_006_1",
      "primitives": [
        {
          "attributes": {
            "POSITION": 20,
            "NORMAL": 21,
            "TEXCOORD_0": 22
          },
          "indices": 23,
          "material": 0,
          "mode": 4
        }
      ]
    },
    {
      "name": "solid_007_1",
      "primitives": [
        {
          "attributes": {
            "POSITION": 24,
            "NORMAL": 25,
            "TEXCOORD_0": 26
          },
          "indices": 27,
          "material": 0,
          "mode": 4
        }
      ]
    },
    {
      "name": "solid_008_1",
      "primitives": [
        {
          "attributes": {
            "POSITION": 28,
            "NORMAL": 29,
            "TEXCOORD_0": 30
          },
          "indices": 31,
          "material": 0,
          "mode": 4
        }
      ]
    },
    {
      "name": "solid_009_1",
      "primitives": [
        {
          "attributes": {
            "POSITION": 32,
            "NORMAL": 33,
            "TEXCOORD_0": 34
          },
          "indices": 35,
          "material": 0,
          "mode": 4
        }
      ]
    },
    {
      "name": "solid_010_1",
      "primitives": [
        {
          "attributes": {
            "POSITION": 36,
            "NORMAL": 37,
            "TEXCOORD_0": 38
          },
          "indices": 39,
          "material": 0,
          "mode": 4
        }
      ]
    },
    {
      "name": "solid_011_1",
      "primitives": [
        {
          "attributes": {
            "POSITION": 40,
            "NORMAL": 41,
            "TEXCOORD_0": 42
          },
          "indices": 43,
          "material": 0,
          "mode": 4
        }
      ]
    },
    {
      "name": "solid_012_1",
      "primitives": [
        {
          "attributes": {
            "POSITION": 44,
            "NORMAL": 45,
            "TEXCOORD_0": 46
          },
          "indices": 47,
          "material": 0,
          "mode": 4
        }
      ]
    },
    {
      "name": "solid_013_1",
      "primitives": [
        {
          "attributes": {
            "POSITION": 48,
            "NORMAL": 49,
            "TEXCOORD_0": 50
          },
          "indices": 51,
          "material": 0,
          "mode": 4
        }
      ]
    },
    {
      "name": "solid_014_1",
      "primitives": [
        {
          "attributes": {
            "POSITION": 52,
            "NORMAL": 53,
            "TEXCOORD_0": 54
          },
          "indices": 55,
          "material": 0,
          "mode": 4
        }
      ]
    },
    {
      "name": "solid_015_1",
      "primitives": [
        {
          "attributes": {
            "POSITION": 56,
            "NORMAL": 57,
            "TEXCOORD_0": 58
          },
          "indices": 59,
          "material": 0,
          "mode": 4
        }
      ]
    },
    {
      "name": "solid_016_1",
      "primitives": [
        {
          "attributes": {
            "POSITION": 60,
            "NORMAL": 61,
            "TEXCOORD_0": 62
          },
          "indices": 63,
          "material": 0,
          "mode": 4
        }
      ]
    },
    {
      "name": "solid_017_1",
      "primitives": [
        {
          "attributes": {
            "POSITION": 64,
            "NORMAL": 65,
            "TEXCOORD_0": 66
          },
          "indices": 67,
          "material": 0,
          "mode": 4
        }
      ]
    },
    {
      "name": "solid_018_1",
      "primitives": [
        {
          "attributes": {
            "POSITION": 68,
            "NORMAL": 69,
            "TEXCOORD_0": 70
          },
          "indices": 71,
          "material": 0,
          "mode": 4
        }
      ]
    },
    {
      "name": "solid_019_1",
      "primitives": [
        {
          "attributes": {
            "POSITION": 72,
            "NORMAL": 73,
            "TEXCOORD_0": 74
          },
          "indices": 75,
          "material": 0,
          "mode": 4
        }
      ]
    },
    {
      "name": "solid_020_1",
      "primitives": [
        {
          "attributes": {
            "POSITION": 76,
            "NORMAL": 77,
            "TEXCOORD_0": 78
          },
          "indices": 79,
          "material": 0,
          "mode": 4
        }
      ]
    },
    {
      "name": "solid_021_1",
      "primitives": [
        {
          "attributes": {
            "POSITION": 80,
            "NORMAL": 81,
            "TEXCOORD_0": 82
          },
          "indices": 83,
          "material": 0,
          "mode": 4
        }
      ]
    },
    {
      "name": "solid_022_1",
      "primitives": [
        {
          "attributes": {
            "POSITION": 84,
            "NORMAL": 85,
            "TEXCOORD_0": 86
          },
          "indices": 87,
          "material": 0,
          "mode": 4
        }
      ]
    },
    {
      "name": "solid_023_1",
      "primitives": [
        {
          "attributes": {
            "POSITION": 88,
            "NORMAL": 89,
            "TEXCOORD_0": 90
          },
          "indices": 91,
          "material": 0,
          "mode": 4
        }
      ]
    },
    {
      "name": "solid_024_1",
      "primitives": [
        {
          "attributes": {
            "POSITION": 92,
            "NORMAL": 93,
            "TEXCOORD_0": 94
          },
          "indices": 95,
          "material": 0,
          "mode": 4
        }
      ]
    },
    {
      "name": "solid_025_1",
      "primitives": [
        {
          "attributes": {
            "POSITION": 96,
            "NORMAL": 97,
            "TEXCOORD_0": 98
          },
          "indices": 99,
          "material": 0,
          "mode": 4
        }
      ]
    }
  ],
  "nodes": [
    {
      "name": "solid_001",
      "mesh": 0
    },
    {
      "name": "solid_002",
      "mesh": 1
    },
    {
      "name": "solid_003",
      "mesh": 2
    },
    {
      "name": "solid_004",
      "mesh": 3
    },
    {
      "name": "solid_005",
      "mesh": 4
    },
    {
      "name": "solid_006",
      "mesh": 5
    },
    {
      "name": "solid_007",
      "mesh": 6
    },
    {
      "name": "solid_008",
      "mesh": 7
    },
    {
      "name": "solid_009",
      "mesh": 8
    },
    {
      "name": "solid_010",
      "mesh": 9
    },
    {
      "name": "solid_011",
      "mesh": 10
    },
    {
      "name": "solid_012",
      "mesh": 11
    },
    {
      "name": "solid_013",
      "mesh": 12
    },
    {
      "name": "solid_014",
      "mesh": 13
    },
    {
      "name": "solid_015",
      "mesh": 14
    },
    {
      "name": "solid_016",
      "mesh": 15
    },
    {
      "name": "solid_017",
      "mesh": 16
    },
    {
      "name": "solid_018",
      "mesh": 17
    },
    {
      "name": "solid_019",
      "mesh": 18
    },
    {
      "name": "solid_020",
      "mesh": 19
    },
    {
      "name": "solid_021",
      "mesh": 20
    },
    {
      "name": "solid_022",
      "mesh": 21
    },
    {
      "name": "solid_023",
      "mesh": 22
    },
    {
      "name": "solid_024",
      "mesh": 23
    },
    {
      "name": "solid_025",
      "mesh": 24
    }
  ],
  "scene": 0,
  "scenes": [
    {
      "nodes": [
        0,
        1,
        2,
        3,
        4,
        5,
        6,
        7,
        8,
        9,
        10,
        11,
        12,
        13,
        14,
        15,
        16,
        17,
        18,
        19,
        20,
        21,
        22,
        23,
        24
      ]
    }
  ]
}
