{
  "accessors": [
    {
      "name": "glass_001_1_0_positions",
      "componentType": 5126,
      "count": 98,
      "min": [
        -70.72270202636719,
        4.342599868774414,
        -2.1566998958587646
      ],
      "max": [
        70.6365966796875,
        216.69700622558594,
        1.0820000171661377
      ],
      "type": "VEC3",
      "bufferView": 0,
      "byteOffset": 0
    },
    {
      "name": "glass_001_1_0_normals",
      "componentType": 5126,
      "count": 98,
      "min": [
        -1,
        -1,
        -1
      ],
      "max": [
        1,
        1,
        1
      ],
      "type": "VEC3",
      "bufferView": 1,
      "byteOffset": 0
    },
    {
      "name": "glass_001_1_0_texcoords",
      "componentType": 5126,
      "count": 98,
      "min": [
        0.0005000000237487257,
        0.08470000326633453
      ],
      "max": [
        0.8288999795913696,
        0.9592999815940857
      ],
      "type": "VEC2",
      "bufferView": 2,
      "byteOffset": 0
    },
    {
      "name": "glass_001_1_0_indices",
      "componentType": 5123,
      "count": 222,
      "min": [
        0
      ],
      "max": [
        97
      ],
      "type": "SCALAR",
      "bufferView": 3,
      "byteOffset": 0
    },
    {
      "name": "solid_002_1_0_positions",
      "componentType": 5126,
      "count": 8419,
      "min": [
        -74.7748031616211,
        -0.000014698899576615077,
        -3.2367100715637207
      ],
      "max": [
        74.7748031616211,
        220,
        3.2367100715637207
      ],
      "type": "VEC3",
      "bufferView": 0,
      "byteOffset": 1176
    },
    {
      "name": "solid_002_1_0_normals",
      "componentType": 5126,
      "count": 8419,
      "min": [
        -1,
        -1,
        -1
      ],
      "max": [
        1,
        1,
        1
      ],
      "type": "VEC3",
      "bufferView": 1,
      "byteOffset": 1176
    },
    {
      "name": "solid_002_1_0_texcoords",
      "componentType": 5126,
      "count": 8419,
      "min": [
        -0.003802899969741702,
        -0.000590000010561198
      ],
      "max": [
        0.9830170273780823,
        1.0065891742706299
      ],
      "type": "VEC2",
      "bufferView": 2,
      "byteOffset": 784
    },
    {
      "name": "solid_002_1_0_indices",
      "componentType": 5123,
      "count": 20946,
      "min": [
        0
      ],
      "max": [
        8418
      ],
      "type": "SCALAR",
      "bufferView": 3,
      "byteOffset": 444
    }
  ],
  "asset": {
    "generator": "obj2gltf",
    "version": "2.0"
  },
  "buffers": [
    {
      "name": "model-r",
      "byteLength": 314880,
      "uri": "model-r.bin"
    }
  ],
  "bufferViews": [
    {
      "name": "bufferView_0",
      "buffer": 0,
      "byteLength": 102204,
      "byteOffset": 0,
      "byteStride": 12,
      "target": 34962
    },
    {
      "name": "bufferView_1",
      "buffer": 0,
      "byteLength": 102204,
      "byteOffset": 102204,
      "byteStride": 12,
      "target": 34962
    },
    {
      "name": "bufferView_2",
      "buffer": 0,
      "byteLength": 68136,
      "byteOffset": 204408,
      "byteStride": 8,
      "target": 34962
    },
    {
      "name": "bufferView_3",
      "buffer": 0,
      "byteLength": 42336,
      "byteOffset": 272544,
      "target": 34963
    }
  ],
  "materials": [
    {
      "name": "default",
      "pbrMetallicRoughness": {
        "baseColorFactor": [
          0.5,
          0.5,
          0.5,
          1
        ],
        "metallicFactor": 0,
        "roughnessFactor": 1
      },
      "emissiveFactor": [
        0,
        0,
        0
      ],
      "alphaMode": "OPAQUE",
      "doubleSided": false
    }
  ],
  "meshes": [
    {
      "name": "glass_001_1",
      "primitives": [
        {
          "attributes": {
            "POSITION": 0,
            "NORMAL": 1,
            "TEXCOORD_0": 2
          },
          "indices": 3,
          "material": 0,
          "mode": 4
        }
      ]
    },
    {
      "name": "solid_002_1",
      "primitives": [
        {
          "attributes": {
            "POSITION": 4,
            "NORMAL": 5,
            "TEXCOORD_0": 6
          },
          "indices": 7,
          "material": 0,
          "mode": 4
        }
      ]
    }
  ],
  "nodes": [
    {
      "name": "glass_001",
      "mesh": 0
    },
    {
      "name": "solid_002",
      "mesh": 1
    }
  ],
  "scene": 0,
  "scenes": [
    {
      "nodes": [
        0,
        1
      ]
    }
  ]
}
