{
  "accessors": [
    {
      "name": "solid_002_1_0_positions",
      "componentType": 5126,
      "count": 322,
      "min": [
        -3.597599983215332,
        70.83409881591797,
        -31.026599884033203
      ],
      "max": [
        3.6089000701904297,
        71.9717025756836,
        -23.92970085144043
      ],
      "type": "VEC3",
      "bufferView": 0,
      "byteOffset": 0
    },
    {
      "name": "solid_002_1_0_normals",
      "componentType": 5126,
      "count": 322,
      "min": [
        -1,
        -1,
        -0.9848157167434692
      ],
      "max": [
        1,
        1,
        0.9848157167434692
      ],
      "type": "VEC3",
      "bufferView": 1,
      "byteOffset": 0
    },
    {
      "name": "solid_002_1_0_texcoords",
      "componentType": 5126,
      "count": 322,
      "min": [
        0,
        0
      ],
      "max": [
        1.0277999639511108,
        1
      ],
      "type": "VEC2",
      "bufferView": 2,
      "byteOffset": 0
    },
    {
      "name": "solid_002_1_0_indices",
      "componentType": 5123,
      "count": 1194,
      "min": [
        0
      ],
      "max": [
        321
      ],
      "type": "SCALAR",
      "bufferView": 3,
      "byteOffset": 0
    },
    {
      "name": "solid_001_1_0_positions",
      "componentType": 5126,
      "count": 760,
      "min": [
        -18.907981872558594,
        0.061420001089572906,
        -35.631752014160156
      ],
      "max": [
        18.90192222595215,
        70.97677612304688,
        35.594581604003906
      ],
      "type": "VEC3",
      "bufferView": 0,
      "byteOffset": 3864
    },
    {
      "name": "solid_001_1_0_normals",
      "componentType": 5126,
      "count": 760,
      "min": [
        -0.9998297095298767,
        -0.9997358322143555,
        -0.9999890923500061
      ],
      "max": [
        0.9998031854629517,
        0.9996626973152161,
        0.9999211430549622
      ],
      "type": "VEC3",
      "bufferView": 1,
      "byteOffset": 3864
    },
    {
      "name": "solid_001_1_0_texcoords",
      "componentType": 5126,
      "count": 760,
      "min": [
        -189.60362243652344,
        -311.802001953125
      ],
      "max": [
        188.49623107910156,
        400.4615478515625
      ],
      "type": "VEC2",
      "bufferView": 2,
      "byteOffset": 2576
    },
    {
      "name": "solid_001_1_0_indices",
      "componentType": 5123,
      "count": 1812,
      "min": [
        0
      ],
      "max": [
        759
      ],
      "type": "SCALAR",
      "bufferView": 3,
      "byteOffset": 2388
    }
  ],
  "asset": {
    "generator": "obj2gltf",
    "version": "2.0"
  },
  "buffers": [
    {
      "name": "model-r",
      "byteLength": 40636,
      "uri": "model-r.bin"
    }
  ],
  "bufferViews": [
    {
      "name": "bufferView_0",
      "buffer": 0,
      "byteLength": 12984,
      "byteOffset": 0,
      "byteStride": 12,
      "target": 34962
    },
    {
      "name": "bufferView_1",
      "buffer": 0,
      "byteLength": 12984,
      "byteOffset": 12984,
      "byteStride": 12,
      "target": 34962
    },
    {
      "name": "bufferView_2",
      "buffer": 0,
      "byteLength": 8656,
      "byteOffset": 25968,
      "byteStride": 8,
      "target": 34962
    },
    {
      "name": "bufferView_3",
      "buffer": 0,
      "byteLength": 6012,
      "byteOffset": 34624,
      "target": 34963
    }
  ],
  "materials": [
    {
      "name": "Default_material",
      "pbrMetallicRoughness": {
        "baseColorFactor": [
          0.752941,
          0.752941,
          0.752941,
          1
        ],
        "metallicFactor": 0,
        "roughnessFactor": 0.4
      },
      "emissiveFactor": [
        0,
        0,
        0
      ],
      "alphaMode": "OPAQUE",
      "doubleSided": false
    }
  ],
  "meshes": [
    {
      "name": "solid_002_1",
      "primitives": [
        {
          "attributes": {
            "POSITION": 0,
            "NORMAL": 1,
            "TEXCOORD_0": 2
          },
          "indices": 3,
          "material": 0,
          "mode": 4
        }
      ]
    },
    {
      "name": "solid_001_1",
      "primitives": [
        {
          "attributes": {
            "POSITION": 4,
            "NORMAL": 5,
            "TEXCOORD_0": 6
          },
          "indices": 7,
          "material": 0,
          "mode": 4
        }
      ]
    }
  ],
  "nodes": [
    {
      "name": "solid_002",
      "mesh": 0
    },
    {
      "name": "solid_001",
      "mesh": 1
    }
  ],
  "scene": 0,
  "scenes": [
    {
      "nodes": [
        0,
        1
      ]
    }
  ]
}
