{
  "accessors": [
    {
      "name": "solid_002_1_0_positions",
      "componentType": 5126,
      "count": 1784,
      "min": [
        -1.5741000175476074,
        0.39739999175071716,
        -0.5622000098228455
      ],
      "max": [
        1.5748000144958496,
        2.142400026321411,
        0.5622000098228455
      ],
      "type": "VEC3",
      "bufferView": 0,
      "byteOffset": 0
    },
    {
      "name": "solid_002_1_0_normals",
      "componentType": 5126,
      "count": 1784,
      "min": [
        -0.9999998211860657,
        -1,
        -0.9999998211860657
      ],
      "max": [
        0.9999999403953552,
        1,
        0.9999999403953552
      ],
      "type": "VEC3",
      "bufferView": 1,
      "byteOffset": 0
    },
    {
      "name": "solid_002_1_0_texcoords",
      "componentType": 5126,
      "count": 1784,
      "min": [
        0.004999999888241291,
        0.004999999888241291
      ],
      "max": [
        0.995199978351593,
        0.9961000084877014
      ],
      "type": "VEC2",
      "bufferView": 2,
      "byteOffset": 0
    },
    {
      "name": "solid_002_1_0_indices",
      "componentType": 5123,
      "count": 3117,
      "min": [
        0
      ],
      "max": [
        1783
      ],
      "type": "SCALAR",
      "bufferView": 3,
      "byteOffset": 0
    }
  ],
  "asset": {
    "generator": "obj2gltf",
    "version": "2.0"
  },
  "buffers": [
    {
      "name": "model-r",
      "byteLength": 63324,
      "uri": "model-r.bin"
    }
  ],
  "bufferViews": [
    {
      "name": "bufferView_0",
      "buffer": 0,
      "byteLength": 21408,
      "byteOffset": 0,
      "byteStride": 12,
      "target": 34962
    },
    {
      "name": "bufferView_1",
      "buffer": 0,
      "byteLength": 21408,
      "byteOffset": 21408,
      "byteStride": 12,
      "target": 34962
    },
    {
      "name": "bufferView_2",
      "buffer": 0,
      "byteLength": 14272,
      "byteOffset": 42816,
      "byteStride": 8,
      "target": 34962
    },
    {
      "name": "bufferView_3",
      "buffer": 0,
      "byteLength": 6236,
      "byteOffset": 57088,
      "target": 34963
    }
  ],
  "materials": [
    {
      "name": "Default_material",
      "pbrMetallicRoughness": {
        "baseColorFactor": [
          0.752941,
          0.752941,
          0.752941,
          1
        ],
        "metallicFactor": 0,
        "roughnessFactor": 0.4
      },
      "emissiveFactor": [
        0,
        0,
        0
      ],
      "alphaMode": "OPAQUE",
      "doubleSided": false
    }
  ],
  "meshes": [
    {
      "name": "solid_002_1",
      "primitives": [
        {
          "attributes": {
            "POSITION": 0,
            "NORMAL": 1,
            "TEXCOORD_0": 2
          },
          "indices": 3,
          "material": 0,
          "mode": 4
        }
      ]
    }
  ],
  "nodes": [
    {
      "name": "solid_002",
      "mesh": 0
    }
  ],
  "scene": 0,
  "scenes": [
    {
      "nodes": [
        0
      ]
    }
  ]
}
