{
  "accessors": [
    {
      "name": "solid_001_1_0_positions",
      "componentType": 5126,
      "count": 2195,
      "min": [
        -8.00100040435791,
        0.025255000218749046,
        -5.591599941253662
      ],
      "max": [
        8.00100040435791,
        20.442399978637695,
        5.558629989624023
      ],
      "type": "VEC3",
      "bufferView": 0,
      "byteOffset": 0
    },
    {
      "name": "solid_001_1_0_normals",
      "componentType": 5126,
      "count": 2195,
      "min": [
        -1,
        -0.9999995827674866,
        -0.9998530745506287
      ],
      "max": [
        1,
        1,
        1
      ],
      "type": "VEC3",
      "bufferView": 1,
      "byteOffset": 0
    },
    {
      "name": "solid_001_1_0_texcoords",
      "componentType": 5126,
      "count": 2195,
      "min": [
        0.008200000040233135,
        0.011300000362098217
      ],
      "max": [
        0.989799976348877,
        0.9969000220298767
      ],
      "type": "VEC2",
      "bufferView": 2,
      "byteOffset": 0
    },
    {
      "name": "solid_001_1_0_indices",
      "componentType": 5123,
      "count": 3591,
      "min": [
        0
      ],
      "max": [
        2194
      ],
      "type": "SCALAR",
      "bufferView": 3,
      "byteOffset": 0
    }
  ],
  "asset": {
    "generator": "obj2gltf",
    "version": "2.0"
  },
  "buffers": [
    {
      "name": "model-r",
      "byteLength": 77424,
      "uri": "model-r.bin"
    }
  ],
  "bufferViews": [
    {
      "name": "bufferView_0",
      "buffer": 0,
      "byteLength": 26340,
      "byteOffset": 0,
      "byteStride": 12,
      "target": 34962
    },
    {
      "name": "bufferView_1",
      "buffer": 0,
      "byteLength": 26340,
      "byteOffset": 26340,
      "byteStride": 12,
      "target": 34962
    },
    {
      "name": "bufferView_2",
      "buffer": 0,
      "byteLength": 17560,
      "byteOffset": 52680,
      "byteStride": 8,
      "target": 34962
    },
    {
      "name": "bufferView_3",
      "buffer": 0,
      "byteLength": 7184,
      "byteOffset": 70240,
      "target": 34963
    }
  ],
  "materials": [
    {
      "name": "Default_material",
      "pbrMetallicRoughness": {
        "baseColorFactor": [
          0.752941,
          0.752941,
          0.752941,
          1
        ],
        "metallicFactor": 0,
        "roughnessFactor": 0.4
      },
      "emissiveFactor": [
        0,
        0,
        0
      ],
      "alphaMode": "OPAQUE",
      "doubleSided": false
    }
  ],
  "meshes": [
    {
      "name": "solid_001_1",
      "primitives": [
        {
          "attributes": {
            "POSITION": 0,
            "NORMAL": 1,
            "TEXCOORD_0": 2
          },
          "indices": 3,
          "material": 0,
          "mode": 4
        }
      ]
    }
  ],
  "nodes": [
    {
      "name": "solid_001",
      "mesh": 0
    }
  ],
  "scene": 0,
  "scenes": [
    {
      "nodes": [
        0
      ]
    }
  ]
}
