{
  "accessors": [
    {
      "name": "solid_001_1_0_positions",
      "componentType": 5126,
      "count": 880,
      "min": [
        -27.98390007019043,
        -0.0007938650087453425,
        -26.38909912109375
      ],
      "max": [
        29.356599807739258,
        60.835601806640625,
        30.90369987487793
      ],
      "type": "VEC3",
      "bufferView": 0,
      "byteOffset": 0
    },
    {
      "name": "solid_001_1_0_normals",
      "componentType": 5126,
      "count": 880,
      "min": [
        -0.997825562953949,
        -1,
        -0.9990160465240479
      ],
      "max": [
        0.997825562953949,
        1,
        0.9916952252388
      ],
      "type": "VEC3",
      "bufferView": 1,
      "byteOffset": 0
    },
    {
      "name": "solid_001_1_0_texcoords",
      "componentType": 5126,
      "count": 880,
      "min": [
        0,
        -0.30118998885154724
      ],
      "max": [
        1,
        1.30239999294281
      ],
      "type": "VEC2",
      "bufferView": 2,
      "byteOffset": 0
    },
    {
      "name": "solid_001_1_0_indices",
      "componentType": 5123,
      "count": 3228,
      "min": [
        0
      ],
      "max": [
        879
      ],
      "type": "SCALAR",
      "bufferView": 3,
      "byteOffset": 0
    },
    {
      "name": "solid_002_1_0_positions",
      "componentType": 5126,
      "count": 10741,
      "min": [
        -32.32149887084961,
        40.58509826660156,
        -30.898399353027344
      ],
      "max": [
        32.32149887084961,
        90.99620056152344,
        30.303699493408203
      ],
      "type": "VEC3",
      "bufferView": 0,
      "byteOffset": 10560
    },
    {
      "name": "solid_002_1_0_normals",
      "componentType": 5126,
      "count": 10741,
      "min": [
        -1,
        -1,
        -1
      ],
      "max": [
        1,
        1,
        1
      ],
      "type": "VEC3",
      "bufferView": 1,
      "byteOffset": 10560
    },
    {
      "name": "solid_002_1_0_texcoords",
      "componentType": 5126,
      "count": 10741,
      "min": [
        0.1785999983549118,
        0.20029999315738678
      ],
      "max": [
        0.821399986743927,
        0.805400013923645
      ],
      "type": "VEC2",
      "bufferView": 2,
      "byteOffset": 7040
    },
    {
      "name": "solid_002_1_0_indices",
      "componentType": 5123,
      "count": 49980,
      "min": [
        0
      ],
      "max": [
        10740
      ],
      "type": "SCALAR",
      "bufferView": 3,
      "byteOffset": 6456
    }
  ],
  "asset": {
    "generator": "obj2gltf",
    "version": "2.0"
  },
  "buffers": [
    {
      "name": "model-r",
      "byteLength": 478288,
      "uri": "model-r.bin"
    }
  ],
  "bufferViews": [
    {
      "name": "bufferView_0",
      "buffer": 0,
      "byteLength": 139452,
      "byteOffset": 0,
      "byteStride": 12,
      "target": 34962
    },
    {
      "name": "bufferView_1",
      "buffer": 0,
      "byteLength": 139452,
      "byteOffset": 139452,
      "byteStride": 12,
      "target": 34962
    },
    {
      "name": "bufferView_2",
      "buffer": 0,
      "byteLength": 92968,
      "byteOffset": 278904,
      "byteStride": 8,
      "target": 34962
    },
    {
      "name": "bufferView_3",
      "buffer": 0,
      "byteLength": 106416,
      "byteOffset": 371872,
      "target": 34963
    }
  ],
  "materials": [
    {
      "name": "default",
      "pbrMetallicRoughness": {
        "baseColorFactor": [
          0.5,
          0.5,
          0.5,
          1
        ],
        "metallicFactor": 0,
        "roughnessFactor": 1
      },
      "emissiveFactor": [
        0,
        0,
        0
      ],
      "alphaMode": "OPAQUE",
      "doubleSided": false
    }
  ],
  "meshes": [
    {
      "name": "solid_001_1",
      "primitives": [
        {
          "attributes": {
            "POSITION": 0,
            "NORMAL": 1,
            "TEXCOORD_0": 2
          },
          "indices": 3,
          "material": 0,
          "mode": 4
        }
      ]
    },
    {
      "name": "solid_002_1",
      "primitives": [
        {
          "attributes": {
            "POSITION": 4,
            "NORMAL": 5,
            "TEXCOORD_0": 6
          },
          "indices": 7,
          "material": 0,
          "mode": 4
        }
      ]
    }
  ],
  "nodes": [
    {
      "name": "solid_001",
      "mesh": 0
    },
    {
      "name": "solid_002",
      "mesh": 1
    }
  ],
  "scene": 0,
  "scenes": [
    {
      "nodes": [
        0,
        1
      ]
    }
  ]
}
