{
  "accessors": [
    {
      "name": "solid_002_1_0_positions",
      "componentType": 5126,
      "count": 192,
      "min": [
        1.1612000465393066,
        8.050700187683105,
        -0.8270000219345093
      ],
      "max": [
        1.7943999767303467,
        8.67590045928955,
        0.8270000219345093
      ],
      "type": "VEC3",
      "bufferView": 0,
      "byteOffset": 0
    },
    {
      "name": "solid_002_1_0_normals",
      "componentType": 5126,
      "count": 192,
      "min": [
        -1,
        -0.9847270846366882,
        -0.9957606792449951
      ],
      "max": [
        1,
        0.9847270846366882,
        0.9957606792449951
      ],
      "type": "VEC3",
      "bufferView": 1,
      "byteOffset": 0
    },
    {
      "name": "solid_002_1_0_texcoords",
      "componentType": 5126,
      "count": 192,
      "min": [
        -0.02710000053048134,
        0.08380000293254852
      ],
      "max": [
        0.9728999733924866,
        0.9161999821662903
      ],
      "type": "VEC2",
      "bufferView": 2,
      "byteOffset": 0
    },
    {
      "name": "solid_002_1_0_indices",
      "componentType": 5123,
      "count": 534,
      "min": [
        0
      ],
      "max": [
        191
      ],
      "type": "SCALAR",
      "bufferView": 3,
      "byteOffset": 0
    },
    {
      "name": "solid_001_1_0_positions",
      "componentType": 5126,
      "count": 909,
      "min": [
        -6.240200042724609,
        0,
        -0.9927999973297119
      ],
      "max": [
        6.240200042724609,
        22.52720069885254,
        0.9927999973297119
      ],
      "type": "VEC3",
      "bufferView": 0,
      "byteOffset": 2304
    },
    {
      "name": "solid_001_1_0_normals",
      "componentType": 5126,
      "count": 909,
      "min": [
        -1,
        -1,
        -1
      ],
      "max": [
        1,
        1,
        1
      ],
      "type": "VEC3",
      "bufferView": 1,
      "byteOffset": 2304
    },
    {
      "name": "solid_001_1_0_texcoords",
      "componentType": 5126,
      "count": 909,
      "min": [
        0.031199999153614044,
        0.0005000000237487257
      ],
      "max": [
        0.9688000082969666,
        0.9994999766349792
      ],
      "type": "VEC2",
      "bufferView": 2,
      "byteOffset": 1536
    },
    {
      "name": "solid_001_1_0_indices",
      "componentType": 5123,
      "count": 1326,
      "min": [
        0
      ],
      "max": [
        908
      ],
      "type": "SCALAR",
      "bufferView": 3,
      "byteOffset": 1068
    }
  ],
  "asset": {
    "generator": "obj2gltf",
    "version": "2.0"
  },
  "buffers": [
    {
      "name": "model-r",
      "byteLength": 38952,
      "uri": "model-r.bin"
    }
  ],
  "bufferViews": [
    {
      "name": "bufferView_0",
      "buffer": 0,
      "byteLength": 13212,
      "byteOffset": 0,
      "byteStride": 12,
      "target": 34962
    },
    {
      "name": "bufferView_1",
      "buffer": 0,
      "byteLength": 13212,
      "byteOffset": 13212,
      "byteStride": 12,
      "target": 34962
    },
    {
      "name": "bufferView_2",
      "buffer": 0,
      "byteLength": 8808,
      "byteOffset": 26424,
      "byteStride": 8,
      "target": 34962
    },
    {
      "name": "bufferView_3",
      "buffer": 0,
      "byteLength": 3720,
      "byteOffset": 35232,
      "target": 34963
    }
  ],
  "materials": [
    {
      "name": "Default_material",
      "pbrMetallicRoughness": {
        "baseColorFactor": [
          0.752941,
          0.752941,
          0.752941,
          1
        ],
        "metallicFactor": 0,
        "roughnessFactor": 0.4
      },
      "emissiveFactor": [
        0,
        0,
        0
      ],
      "alphaMode": "OPAQUE",
      "doubleSided": false
    }
  ],
  "meshes": [
    {
      "name": "solid_002_1",
      "primitives": [
        {
          "attributes": {
            "POSITION": 0,
            "NORMAL": 1,
            "TEXCOORD_0": 2
          },
          "indices": 3,
          "material": 0,
          "mode": 4
        }
      ]
    },
    {
      "name": "solid_001_1",
      "primitives": [
        {
          "attributes": {
            "POSITION": 4,
            "NORMAL": 5,
            "TEXCOORD_0": 6
          },
          "indices": 7,
          "material": 0,
          "mode": 4
        }
      ]
    }
  ],
  "nodes": [
    {
      "name": "solid_002",
      "mesh": 0
    },
    {
      "name": "solid_001",
      "mesh": 1
    }
  ],
  "scene": 0,
  "scenes": [
    {
      "nodes": [
        0,
        1
      ]
    }
  ]
}
