{
  "accessors": [
    {
      "name": "solid_001_1_0_positions",
      "componentType": 5126,
      "count": 646,
      "min": [
        -51.2406005859375,
        82.77459716796875,
        -16.45400047302246
      ],
      "max": [
        -13.229000091552734,
        102.31800079345703,
        27.14240074157715
      ],
      "type": "VEC3",
      "bufferView": 0,
      "byteOffset": 0
    },
    {
      "name": "solid_001_1_0_normals",
      "componentType": 5126,
      "count": 646,
      "min": [
        -0.9918195009231567,
        -0.9997785091400146,
        -0.9969802498817444
      ],
      "max": [
        0.9921661019325256,
        0.9999492168426514,
        0.9997366666793823
      ],
      "type": "VEC3",
      "bufferView": 1,
      "byteOffset": 0
    },
    {
      "name": "solid_001_1_0_texcoords",
      "componentType": 5126,
      "count": 646,
      "min": [
        0.024457499384880066,
        0.021337000653147697
      ],
      "max": [
        1.0155199766159058,
        0.999543309211731
      ],
      "type": "VEC2",
      "bufferView": 2,
      "byteOffset": 0
    },
    {
      "name": "solid_001_1_0_indices",
      "componentType": 5123,
      "count": 2736,
      "min": [
        0
      ],
      "max": [
        645
      ],
      "type": "SCALAR",
      "bufferView": 3,
      "byteOffset": 0
    },
    {
      "name": "solid_002_1_0_positions",
      "componentType": 5126,
      "count": 551,
      "min": [
        -1.2139699459075928,
        82.76679992675781,
        -8.023340225219727
      ],
      "max": [
        48.035400390625,
        88.92790222167969,
        26.84079933166504
      ],
      "type": "VEC3",
      "bufferView": 0,
      "byteOffset": 7752
    },
    {
      "name": "solid_002_1_0_normals",
      "componentType": 5126,
      "count": 551,
      "min": [
        -0.9985934495925903,
        -0.9971389770507812,
        -0.9811651110649109
      ],
      "max": [
        0.9998856782913208,
        0.9942762851715088,
        0.9950833320617676
      ],
      "type": "VEC3",
      "bufferView": 1,
      "byteOffset": 7752
    },
    {
      "name": "solid_002_1_0_texcoords",
      "componentType": 5126,
      "count": 551,
      "min": [
        0.01147290039807558,
        0.2922019958496094
      ],
      "max": [
        0.9888830184936523,
        0.992618978023529
      ],
      "type": "VEC2",
      "bufferView": 2,
      "byteOffset": 5168
    },
    {
      "name": "solid_002_1_0_indices",
      "componentType": 5123,
      "count": 2886,
      "min": [
        0
      ],
      "max": [
        550
      ],
      "type": "SCALAR",
      "bufferView": 3,
      "byteOffset": 5472
    },
    {
      "name": "solid_003_1_0_positions",
      "componentType": 5126,
      "count": 332,
      "min": [
        -9.912489891052246,
        94.39969635009766,
        -16.941200256347656
      ],
      "max": [
        24.520200729370117,
        102.04299926757812,
        -0.7973089814186096
      ],
      "type": "VEC3",
      "bufferView": 0,
      "byteOffset": 14364
    },
    {
      "name": "solid_003_1_0_normals",
      "componentType": 5126,
      "count": 332,
      "min": [
        -0.9917999505996704,
        -0.9994468688964844,
        -0.9936570525169373
      ],
      "max": [
        0.9775159358978271,
        0.9990208148956299,
        0.9892582297325134
      ],
      "type": "VEC3",
      "bufferView": 1,
      "byteOffset": 14364
    },
    {
      "name": "solid_003_1_0_texcoords",
      "componentType": 5126,
      "count": 332,
      "min": [
        -0.402446985244751,
        -0.4836899936199188
      ],
      "max": [
        1.383579969406128,
        1.3725039958953857
      ],
      "type": "VEC2",
      "bufferView": 2,
      "byteOffset": 9576
    },
    {
      "name": "solid_003_1_0_indices",
      "componentType": 5123,
      "count": 1704,
      "min": [
        0
      ],
      "max": [
        331
      ],
      "type": "SCALAR",
      "bufferView": 3,
      "byteOffset": 11244
    },
    {
      "name": "solid_004_1_0_positions",
      "componentType": 5126,
      "count": 72,
      "min": [
        -52.482200622558594,
        79.81060028076172,
        2.486299991607666
      ],
      "max": [
        20.508699417114258,
        94.79049682617188,
        11.607999801635742
      ],
      "type": "VEC3",
      "bufferView": 0,
      "byteOffset": 18348
    },
    {
      "name": "solid_004_1_0_normals",
      "componentType": 5126,
      "count": 72,
      "min": [
        -0.23160286247730255,
        0,
        0.9699776768684387
      ],
      "max": [
        0.24319392442703247,
        0,
        1
      ],
      "type": "VEC3",
      "bufferView": 1,
      "byteOffset": 18348
    },
    {
      "name": "solid_004_1_0_texcoords",
      "componentType": 5126,
      "count": 72,
      "min": [
        0,
        0
      ],
      "max": [
        1,
        0.666700005531311
      ],
      "type": "VEC2",
      "bufferView": 2,
      "byteOffset": 12232
    },
    {
      "name": "solid_004_1_0_indices",
      "componentType": 5123,
      "count": 252,
      "min": [
        0
      ],
      "max": [
        71
      ],
      "type": "SCALAR",
      "bufferView": 3,
      "byteOffset": 14652
    },
    {
      "name": "solid_005_1_0_positions",
      "componentType": 5126,
      "count": 1200,
      "min": [
        62.714500427246094,
        46.94350051879883,
        8.137909889221191
      ],
      "max": [
        63.47520065307617,
        80.7572021484375,
        28.927200317382812
      ],
      "type": "VEC3",
      "bufferView": 0,
      "byteOffset": 19212
    },
    {
      "name": "solid_005_1_0_normals",
      "componentType": 5126,
      "count": 1200,
      "min": [
        -1,
        -0.9999992847442627,
        -0.9994314312934875
      ],
      "max": [
        1,
        0.999981701374054,
        0.9999918937683105
      ],
      "type": "VEC3",
      "bufferView": 1,
      "byteOffset": 19212
    },
    {
      "name": "solid_005_1_0_texcoords",
      "componentType": 5126,
      "count": 1200,
      "min": [
        -0.4081999957561493,
        -0.3488500118255615
      ],
      "max": [
        1.406309962272644,
        1.3539769649505615
      ],
      "type": "VEC2",
      "bufferView": 2,
      "byteOffset": 12808
    },
    {
      "name": "solid_005_1_0_indices",
      "componentType": 5123,
      "count": 4704,
      "min": [
        0
      ],
      "max": [
        1199
      ],
      "type": "SCALAR",
      "bufferView": 3,
      "byteOffset": 15156
    },
    {
      "name": "solid_006_1_0_positions",
      "componentType": 5126,
      "count": 495,
      "min": [
        62.07040023803711,
        45.4193000793457,
        -13.542400360107422
      ],
      "max": [
        63.6781005859375,
        80.64939880371094,
        6.687689781188965
      ],
      "type": "VEC3",
      "bufferView": 0,
      "byteOffset": 33612
    },
    {
      "name": "solid_006_1_0_normals",
      "componentType": 5126,
      "count": 495,
      "min": [
        -0.9999992847442627,
        -0.9253491759300232,
        -0.9999703764915466
      ],
      "max": [
        0.9999998807907104,
        0.9913734197616577,
        0.999994158744812
      ],
      "type": "VEC3",
      "bufferView": 1,
      "byteOffset": 33612
    },
    {
      "name": "solid_006_1_0_texcoords",
      "componentType": 5126,
      "count": 495,
      "min": [
        -0.07919289916753769,
        -0.5031599998474121
      ],
      "max": [
        1.0790200233459473,
        1.5067219734191895
      ],
      "type": "VEC2",
      "bufferView": 2,
      "byteOffset": 22408
    },
    {
      "name": "solid_006_1_0_indices",
      "componentType": 5123,
      "count": 1770,
      "min": [
        0
      ],
      "max": [
        494
      ],
      "type": "SCALAR",
      "bufferView": 3,
      "byteOffset": 24564
    },
    {
      "name": "solid_007_1_0_positions",
      "componentType": 5126,
      "count": 3412,
      "min": [
        -58.622501373291016,
        60.63639831542969,
        -37.147300720214844
      ],
      "max": [
        62.93389892578125,
        139.82200622558594,
        39.84400177001953
      ],
      "type": "VEC3",
      "bufferView": 0,
      "byteOffset": 39552
    },
    {
      "name": "solid_007_1_0_normals",
      "componentType": 5126,
      "count": 3412,
      "min": [
        -1,
        -1,
        -1
      ],
      "max": [
        1,
        1,
        1
      ],
      "type": "VEC3",
      "bufferView": 1,
      "byteOffset": 39552
    },
    {
      "name": "solid_007_1_0_texcoords",
      "componentType": 5126,
      "count": 3412,
      "min": [
        -0.523481011390686,
        0.1430409997701645
      ],
      "max": [
        1.5234800577163696,
        0.8569579720497131
      ],
      "type": "VEC2",
      "bufferView": 2,
      "byteOffset": 26368
    },
    {
      "name": "solid_007_1_0_indices",
      "componentType": 5123,
      "count": 4302,
      "min": [
        0
      ],
      "max": [
        3411
      ],
      "type": "SCALAR",
      "bufferView": 3,
      "byteOffset": 28104
    },
    {
      "name": "solid_008_1_0_positions",
      "componentType": 5126,
      "count": 371,
      "min": [
        21.83650016784668,
        64.70089721679688,
        40.137901306152344
      ],
      "max": [
        23.53660011291504,
        66.4094009399414,
        47.889400482177734
      ],
      "type": "VEC3",
      "bufferView": 0,
      "byteOffset": 80496
    },
    {
      "name": "solid_008_1_0_normals",
      "componentType": 5126,
      "count": 371,
      "min": [
        -0.9255114793777466,
        -0.9255148768424988,
        -1
      ],
      "max": [
        0.9236084818840027,
        0.9253576993942261,
        1
      ],
      "type": "VEC3",
      "bufferView": 1,
      "byteOffset": 80496
    },
    {
      "name": "solid_008_1_0_texcoords",
      "componentType": 5126,
      "count": 371,
      "min": [
        0.3111000061035156,
        0.3111000061035156
      ],
      "max": [
        0.6888999938964844,
        0.680400013923645
      ],
      "type": "VEC2",
      "bufferView": 2,
      "byteOffset": 53664
    },
    {
      "name": "solid_008_1_0_indices",
      "componentType": 5123,
      "count": 1146,
      "min": [
        0
      ],
      "max": [
        370
      ],
      "type": "SCALAR",
      "bufferView": 3,
      "byteOffset": 36708
    },
    {
      "name": "solid_009_1_0_positions",
      "componentType": 5126,
      "count": 2865,
      "min": [
        -64.85449981689453,
        -0.24672099947929382,
        -47.88090133666992
      ],
      "max": [
        62.253299713134766,
        139.63299560546875,
        35.76089859008789
      ],
      "type": "VEC3",
      "bufferView": 0,
      "byteOffset": 84948
    },
    {
      "name": "solid_009_1_0_normals",
      "componentType": 5126,
      "count": 2865,
      "min": [
        -1,
        -1,
        -1
      ],
      "max": [
        1,
        1,
        1
      ],
      "type": "VEC3",
      "bufferView": 1,
      "byteOffset": 84948
    },
    {
      "name": "solid_009_1_0_texcoords",
      "componentType": 5126,
      "count": 2865,
      "min": [
        -1.6187000274658203,
        -0.20329999923706055
      ],
      "max": [
        2.6187000274658203,
        1.9016770124435425
      ],
      "type": "VEC2",
      "bufferView": 2,
      "byteOffset": 56632
    },
    {
      "name": "solid_009_1_0_indices",
      "componentType": 5123,
      "count": 5154,
      "min": [
        0
      ],
      "max": [
        2864
      ],
      "type": "SCALAR",
      "bufferView": 3,
      "byteOffset": 39000
    },
    {
      "name": "glass_005_1_0_positions",
      "componentType": 5126,
      "count": 4,
      "min": [
        -58.00590133666992,
        81.71389770507812,
        -11.892200469970703
      ],
      "max": [
        26.96299934387207,
        81.71389770507812,
        31.085399627685547
      ],
      "type": "VEC3",
      "bufferView": 0,
      "byteOffset": 119328
    },
    {
      "name": "glass_005_1_0_normals",
      "componentType": 5126,
      "count": 4,
      "min": [
        0,
        1,
        0
      ],
      "max": [
        0,
        1,
        0
      ],
      "type": "VEC3",
      "bufferView": 1,
      "byteOffset": 119328
    },
    {
      "name": "glass_005_1_0_texcoords",
      "componentType": 5126,
      "count": 4,
      "min": [
        0,
        -428.7770080566406
      ],
      "max": [
        849.6890258789062,
        1
      ],
      "type": "VEC2",
      "bufferView": 2,
      "byteOffset": 79552
    },
    {
      "name": "glass_005_1_0_indices",
      "componentType": 5123,
      "count": 6,
      "min": [
        0
      ],
      "max": [
        3
      ],
      "type": "SCALAR",
      "bufferView": 3,
      "byteOffset": 49308
    },
    {
      "name": "solid_011_1_0_positions",
      "componentType": 5126,
      "count": 368,
      "min": [
        32.360198974609375,
        84.24829864501953,
        3.9623000621795654
      ],
      "max": [
        56.920101165771484,
        86.06649780273438,
        28.414499282836914
      ],
      "type": "VEC3",
      "bufferView": 0,
      "byteOffset": 119376
    },
    {
      "name": "solid_011_1_0_normals",
      "componentType": 5126,
      "count": 368,
      "min": [
        -0.9975506067276001,
        -0.9999998807907104,
        -0.9909828305244446
      ],
      "max": [
        0.9981428384780884,
        1,
        0.9932554364204407
      ],
      "type": "VEC3",
      "bufferView": 1,
      "byteOffset": 119376
    },
    {
      "name": "solid_011_1_0_texcoords",
      "componentType": 5126,
      "count": 368,
      "min": [
        -0.6189389824867249,
        0.029092999175190926
      ],
      "max": [
        1.6183799505233765,
        1.359199047088623
      ],
      "type": "VEC2",
      "bufferView": 2,
      "byteOffset": 79584
    },
    {
      "name": "solid_011_1_0_indices",
      "componentType": 5123,
      "count": 1338,
      "min": [
        0
      ],
      "max": [
        367
      ],
      "type": "SCALAR",
      "bufferView": 3,
      "byteOffset": 49320
    },
    {
      "name": "solid_012_1_0_positions",
      "componentType": 5126,
      "count": 282,
      "min": [
        47.63090133666992,
        85.21549987792969,
        16.838899612426758
      ],
      "max": [
        53.17070007324219,
        86.26809692382812,
        24.646299362182617
      ],
      "type": "VEC3",
      "bufferView": 0,
      "byteOffset": 123792
    },
    {
      "name": "solid_012_1_0_normals",
      "componentType": 5126,
      "count": 282,
      "min": [
        -0.9909154176712036,
        -0.9996959567070007,
        -0.9970547556877136
      ],
      "max": [
        0.9993751049041748,
        0.9999281764030457,
        0.9930636882781982
      ],
      "type": "VEC3",
      "bufferView": 1,
      "byteOffset": 123792
    },
    {
      "name": "solid_012_1_0_texcoords",
      "componentType": 5126,
      "count": 282,
      "min": [
        0.019568899646401405,
        0.03468799963593483
      ],
      "max": [
        0.9950860142707825,
        0.9893742203712463
      ],
      "type": "VEC2",
      "bufferView": 2,
      "byteOffset": 82528
    },
    {
      "name": "solid_012_1_0_indices",
      "componentType": 5123,
      "count": 1182,
      "min": [
        0
      ],
      "max": [
        281
      ],
      "type": "SCALAR",
      "bufferView": 3,
      "byteOffset": 51996
    },
    {
      "name": "solid_013_1_0_positions",
      "componentType": 5126,
      "count": 499,
      "min": [
        49.01430130004883,
        85.10900115966797,
        9.833869934082031
      ],
      "max": [
        54.97890090942383,
        90.5730972290039,
        15.887700080871582
      ],
      "type": "VEC3",
      "bufferView": 0,
      "byteOffset": 127176
    },
    {
      "name": "solid_013_1_0_normals",
      "componentType": 5126,
      "count": 499,
      "min": [
        -0.9955880045890808,
        -0.9999662637710571,
        -0.9961751699447632
      ],
      "max": [
        0.9981824159622192,
        0.9992765188217163,
        0.9996631145477295
      ],
      "type": "VEC3",
      "bufferView": 1,
      "byteOffset": 127176
    },
    {
      "name": "solid_013_1_0_texcoords",
      "componentType": 5126,
      "count": 499,
      "min": [
        -0.01022650022059679,
        -0.0016400000313296914
      ],
      "max": [
        0.9126089811325073,
        1.0007621049880981
      ],
      "type": "VEC2",
      "bufferView": 2,
      "byteOffset": 84784
    },
    {
      "name": "solid_013_1_0_indices",
      "componentType": 5123,
      "count": 2172,
      "min": [
        0
      ],
      "max": [
        498
      ],
      "type": "SCALAR",
      "bufferView": 3,
      "byteOffset": 54360
    },
    {
      "name": "solid_014_1_0_positions",
      "componentType": 5126,
      "count": 299,
      "min": [
        33.51580047607422,
        85.23069763183594,
        8.014900207519531
      ],
      "max": [
        43.7400016784668,
        86.46410369873047,
        22.073699951171875
      ],
      "type": "VEC3",
      "bufferView": 0,
      "byteOffset": 133164
    },
    {
      "name": "solid_014_1_0_normals",
      "componentType": 5126,
      "count": 299,
      "min": [
        -0.9774097800254822,
        -1,
        -0.8383873701095581
      ],
      "max": [
        0.9407732486724854,
        0.9999993443489075,
        0.8357920050621033
      ],
      "type": "VEC3",
      "bufferView": 1,
      "byteOffset": 133164
    },
    {
      "name": "solid_014_1_0_texcoords",
      "componentType": 5126,
      "count": 299,
      "min": [
        0.10199999809265137,
        0.05305999889969826
      ],
      "max": [
        0.9069200158119202,
        0.9495000243186951
      ],
      "type": "VEC2",
      "bufferView": 2,
      "byteOffset": 88776
    },
    {
      "name": "solid_014_1_0_indices",
      "componentType": 5123,
      "count": 1512,
      "min": [
        0
      ],
      "max": [
        298
      ],
      "type": "SCALAR",
      "bufferView": 3,
      "byteOffset": 58704
    },
    {
      "name": "glass_002_1_0_positions",
      "componentType": 5126,
      "count": 206,
      "min": [
        35.09640121459961,
        90.48300170898438,
        -4.688000202178955
      ],
      "max": [
        40.64630126953125,
        95.62650299072266,
        0.8618999719619751
      ],
      "type": "VEC3",
      "bufferView": 0,
      "byteOffset": 136752
    },
    {
      "name": "glass_002_1_0_normals",
      "componentType": 5126,
      "count": 206,
      "min": [
        -0.999850332736969,
        -0.9972874522209167,
        -0.999850332736969
      ],
      "max": [
        0.999850332736969,
        1,
        0.999850332736969
      ],
      "type": "VEC3",
      "bufferView": 1,
      "byteOffset": 136752
    },
    {
      "name": "glass_002_1_0_texcoords",
      "componentType": 5126,
      "count": 206,
      "min": [
        -0.05043010041117668,
        0
      ],
      "max": [
        0.9507369995117188,
        0
      ],
      "type": "VEC2",
      "bufferView": 2,
      "byteOffset": 91168
    },
    {
      "name": "glass_002_1_0_indices",
      "componentType": 5123,
      "count": 1032,
      "min": [
        0
      ],
      "max": [
        205
      ],
      "type": "SCALAR",
      "bufferView": 3,
      "byteOffset": 61728
    },
    {
      "name": "glass_003_1_0_positions",
      "componentType": 5126,
      "count": 496,
      "min": [
        34.80149841308594,
        84.24009704589844,
        -4.917419910430908
      ],
      "max": [
        40.8380012512207,
        99.08450317382812,
        1.1650099754333496
      ],
      "type": "VEC3",
      "bufferView": 0,
      "byteOffset": 139224
    },
    {
      "name": "glass_003_1_0_normals",
      "componentType": 5126,
      "count": 496,
      "min": [
        -0.9946635365486145,
        -1,
        -0.991840660572052
      ],
      "max": [
        1,
        1,
        0.992081880569458
      ],
      "type": "VEC3",
      "bufferView": 1,
      "byteOffset": 139224
    },
    {
      "name": "glass_003_1_0_texcoords",
      "componentType": 5126,
      "count": 496,
      "min": [
        0.3330000042915344,
        0.003008000086992979
      ],
      "max": [
        0.6683899760246277,
        0.9947558045387268
      ],
      "type": "VEC2",
      "bufferView": 2,
      "byteOffset": 92816
    },
    {
      "name": "glass_003_1_0_indices",
      "componentType": 5123,
      "count": 1458,
      "min": [
        0
      ],
      "max": [
        495
      ],
      "type": "SCALAR",
      "bufferView": 3,
      "byteOffset": 63792
    },
    {
      "name": "glass_001_1_0_positions",
      "componentType": 5126,
      "count": 238,
      "min": [
        49.81010055541992,
        84.26010131835938,
        -6.232659816741943
      ],
      "max": [
        58.051998138427734,
        112.21499633789062,
        1.987720012664795
      ],
      "type": "VEC3",
      "bufferView": 0,
      "byteOffset": 145176
    },
    {
      "name": "glass_001_1_0_normals",
      "componentType": 5126,
      "count": 238,
      "min": [
        -0.9999998807907104,
        -0.999999463558197,
        -1
      ],
      "max": [
        0.9999997615814209,
        0.754652738571167,
        1
      ],
      "type": "VEC3",
      "bufferView": 1,
      "byteOffset": 145176
    },
    {
      "name": "glass_001_1_0_texcoords",
      "componentType": 5126,
      "count": 238,
      "min": [
        -0.0502748005092144,
        -0.009379999712109566
      ],
      "max": [
        0.9867449998855591,
        1.0000115633010864
      ],
      "type": "VEC2",
      "bufferView": 2,
      "byteOffset": 96784
    },
    {
      "name": "glass_001_1_0_indices",
      "componentType": 5123,
      "count": 1077,
      "min": [
        0
      ],
      "max": [
        237
      ],
      "type": "SCALAR",
      "bufferView": 3,
      "byteOffset": 66708
    },
    {
      "name": "solid_018_1_0_positions",
      "componentType": 5126,
      "count": 391,
      "min": [
        51.943599700927734,
        112.13999938964844,
        -4.081980228424072
      ],
      "max": [
        55.907100677490234,
        118.0009994506836,
        -0.16300900280475616
      ],
      "type": "VEC3",
      "bufferView": 0,
      "byteOffset": 148032
    },
    {
      "name": "solid_018_1_0_normals",
      "componentType": 5126,
      "count": 391,
      "min": [
        -0.9999136924743652,
        -0.9992136359214783,
        -0.9999725818634033
      ],
      "max": [
        0.9999096989631653,
        0.9999951124191284,
        0.9999729990959167
      ],
      "type": "VEC3",
      "bufferView": 1,
      "byteOffset": 148032
    },
    {
      "name": "solid_018_1_0_texcoords",
      "componentType": 5126,
      "count": 391,
      "min": [
        0.13824999332427979,
        0.0006000000284984708
      ],
      "max": [
        0.8617470264434814,
        1.0217732191085815
      ],
      "type": "VEC2",
      "bufferView": 2,
      "byteOffset": 98688
    },
    {
      "name": "solid_018_1_0_indices",
      "componentType": 5123,
      "count": 1218,
      "min": [
        0
      ],
      "max": [
        390
      ],
      "type": "SCALAR",
      "bufferView": 3,
      "byteOffset": 68864
    },
    {
      "name": "solid_019_1_0_positions",
      "componentType": 5126,
      "count": 154,
      "min": [
        49.75590133666992,
        94.10919952392578,
        -2.128040075302124
      ],
      "max": [
        58.09370040893555,
        102.03900146484375,
        1.9902600049972534
      ],
      "type": "VEC3",
      "bufferView": 0,
      "byteOffset": 152724
    },
    {
      "name": "solid_019_1_0_normals",
      "componentType": 5126,
      "count": 154,
      "min": [
        -0.9938284754753113,
        -0.9999877214431763,
        -0.9990547895431519
      ],
      "max": [
        0.9994356632232666,
        0.999997615814209,
        0.9999970197677612
      ],
      "type": "VEC3",
      "bufferView": 1,
      "byteOffset": 152724
    },
    {
      "name": "solid_019_1_0_texcoords",
      "componentType": 5126,
      "count": 154,
      "min": [
        0.03077249974012375,
        0.014418000355362892
      ],
      "max": [
        0.9723039865493774,
        0.9706774950027466
      ],
      "type": "VEC2",
      "bufferView": 2,
      "byteOffset": 101816
    },
    {
      "name": "solid_019_1_0_indices",
      "componentType": 5123,
      "count": 912,
      "min": [
        0
      ],
      "max": [
        153
      ],
      "type": "SCALAR",
      "bufferView": 3,
      "byteOffset": 71300
    },
    {
      "name": "solid_020_1_0_positions",
      "componentType": 5126,
      "count": 551,
      "min": [
        -42.55860137939453,
        16.433000564575195,
        -16.96310043334961
      ],
      "max": [
        19.804899215698242,
        42.607398986816406,
        39.332298278808594
      ],
      "type": "VEC3",
      "bufferView": 0,
      "byteOffset": 154572
    },
    {
      "name": "solid_020_1_0_normals",
      "componentType": 5126,
      "count": 551,
      "min": [
        -0.9999402761459351,
        -0.9996898174285889,
        -0.9997720718383789
      ],
      "max": [
        0.9999361038208008,
        0.9997305274009705,
        0.9996200203895569
      ],
      "type": "VEC3",
      "bufferView": 1,
      "byteOffset": 154572
    },
    {
      "name": "solid_020_1_0_texcoords",
      "componentType": 5126,
      "count": 551,
      "min": [
        0.04413760080933571,
        0.051940999925136566
      ],
      "max": [
        0.9523980021476746,
        0.762021005153656
      ],
      "type": "VEC2",
      "bufferView": 2,
      "byteOffset": 103048
    },
    {
      "name": "solid_020_1_0_indices",
      "componentType": 5123,
      "count": 1560,
      "min": [
        0
      ],
      "max": [
        550
      ],
      "type": "SCALAR",
      "bufferView": 3,
      "byteOffset": 73124
    },
    {
      "name": "solid_021_1_0_positions",
      "componentType": 5126,
      "count": 2244,
      "min": [
        -46.6078987121582,
        15.696999549865723,
        -15.686300277709961
      ],
      "max": [
        13.346099853515625,
        43.54119873046875,
        37.722198486328125
      ],
      "type": "VEC3",
      "bufferView": 0,
      "byteOffset": 161184
    },
    {
      "name": "solid_021_1_0_normals",
      "componentType": 5126,
      "count": 2244,
      "min": [
        -0.9995470643043518,
        -0.9999818801879883,
        -0.11269806325435638
      ],
      "max": [
        0.9995965361595154,
        0.9999434947967529,
        0.08329732716083527
      ],
      "type": "VEC3",
      "bufferView": 1,
      "byteOffset": 161184
    },
    {
      "name": "solid_021_1_0_texcoords",
      "componentType": 5126,
      "count": 2244,
      "min": [
        -0.08445929735898972,
        -0.8437399864196777
      ],
      "max": [
        1.1460200548171997,
        1.8525439500808716
      ],
      "type": "VEC2",
      "bufferView": 2,
      "byteOffset": 107456
    },
    {
      "name": "solid_021_1_0_indices",
      "componentType": 5123,
      "count": 2268,
      "min": [
        0
      ],
      "max": [
        2243
      ],
      "type": "SCALAR",
      "bufferView": 3,
      "byteOffset": 76244
    },
    {
      "name": "solid_022_1_0_positions",
      "componentType": 5126,
      "count": 446,
      "min": [
        -35.06449890136719,
        16.311899185180664,
        -2.561850070953369
      ],
      "max": [
        20.35260009765625,
        42.049598693847656,
        36.569400787353516
      ],
      "type": "VEC3",
      "bufferView": 0,
      "byteOffset": 188112
    },
    {
      "name": "solid_022_1_0_normals",
      "componentType": 5126,
      "count": 446,
      "min": [
        -0.9999850988388062,
        -0.999954342842102,
        -0.999704122543335
      ],
      "max": [
        0.9996903538703918,
        0.9995370507240295,
        0.9995759129524231
      ],
      "type": "VEC3",
      "bufferView": 1,
      "byteOffset": 188112
    },
    {
      "name": "solid_022_1_0_texcoords",
      "componentType": 5126,
      "count": 446,
      "min": [
        0.030512800440192223,
        0.08055000007152557
      ],
      "max": [
        0.9593489766120911,
        0.9147747755050659
      ],
      "type": "VEC2",
      "bufferView": 2,
      "byteOffset": 125408
    },
    {
      "name": "solid_022_1_0_indices",
      "componentType": 5123,
      "count": 1158,
      "min": [
        0
      ],
      "max": [
        445
      ],
      "type": "SCALAR",
      "bufferView": 3,
      "byteOffset": 80780
    },
    {
      "name": "solid_023_1_0_positions",
      "componentType": 5126,
      "count": 354,
      "min": [
        -33.949501037597656,
        16.367599487304688,
        -11.996899604797363
      ],
      "max": [
        15.415900230407715,
        36.524898529052734,
        35.142601013183594
      ],
      "type": "VEC3",
      "bufferView": 0,
      "byteOffset": 193464
    },
    {
      "name": "solid_023_1_0_normals",
      "componentType": 5126,
      "count": 354,
      "min": [
        -0.9989807605743408,
        -0.998257040977478,
        -0.9998278021812439
      ],
      "max": [
        0.997567892074585,
        0.9998908638954163,
        0.9997627139091492
      ],
      "type": "VEC3",
      "bufferView": 1,
      "byteOffset": 193464
    },
    {
      "name": "solid_023_1_0_texcoords",
      "componentType": 5126,
      "count": 354,
      "min": [
        0.03666020184755325,
        0.018727999180555344
      ],
      "max": [
        0.8909350037574768,
        0.9838879108428955
      ],
      "type": "VEC2",
      "bufferView": 2,
      "byteOffset": 128976
    },
    {
      "name": "solid_023_1_0_indices",
      "componentType": 5123,
      "count": 888,
      "min": [
        0
      ],
      "max": [
        353
      ],
      "type": "SCALAR",
      "bufferView": 3,
      "byteOffset": 83096
    },
    {
      "name": "solid_024_1_0_positions",
      "componentType": 5126,
      "count": 335,
      "min": [
        -27.11590003967285,
        21.192100524902344,
        -14.369500160217285
      ],
      "max": [
        8.274720191955566,
        37.03179931640625,
        34.61149978637695
      ],
      "type": "VEC3",
      "bufferView": 0,
      "byteOffset": 197712
    },
    {
      "name": "solid_024_1_0_normals",
      "componentType": 5126,
      "count": 335,
      "min": [
        -0.9872187376022339,
        -0.9997791647911072,
        -0.9999861717224121
      ],
      "max": [
        0.9999918937683105,
        0.9999882578849792,
        0.9986891150474548
      ],
      "type": "VEC3",
      "bufferView": 1,
      "byteOffset": 197712
    },
    {
      "name": "solid_024_1_0_texcoords",
      "componentType": 5126,
      "count": 335,
      "min": [
        0.05217679962515831,
        0.19719000160694122
      ],
      "max": [
        0.9401800036430359,
        0.9516509771347046
      ],
      "type": "VEC2",
      "bufferView": 2,
      "byteOffset": 131808
    },
    {
      "name": "solid_024_1_0_indices",
      "componentType": 5123,
      "count": 1014,
      "min": [
        0
      ],
      "max": [
        334
      ],
      "type": "SCALAR",
      "bufferView": 3,
      "byteOffset": 84872
    },
    {
      "name": "solid_025_1_0_positions",
      "componentType": 5126,
      "count": 277,
      "min": [
        -46.55720138549805,
        16.374099731445312,
        -15.545599937438965
      ],
      "max": [
        -19.9237003326416,
        31.476900100708008,
        30.374099731445312
      ],
      "type": "VEC3",
      "bufferView": 0,
      "byteOffset": 201732
    },
    {
      "name": "solid_025_1_0_normals",
      "componentType": 5126,
      "count": 277,
      "min": [
        -0.9984854459762573,
        -0.9997745156288147,
        -0.9999996423721313
      ],
      "max": [
        0.9993230700492859,
        0.9982757568359375,
        0.9989964365959167
      ],
      "type": "VEC3",
      "bufferView": 1,
      "byteOffset": 201732
    },
    {
      "name": "solid_025_1_0_texcoords",
      "componentType": 5126,
      "count": 277,
      "min": [
        0.07780460268259048,
        0.06283500045537949
      ],
      "max": [
        0.9327120184898376,
        0.9476190805435181
      ],
      "type": "VEC2",
      "bufferView": 2,
      "byteOffset": 134488
    },
    {
      "name": "solid_025_1_0_indices",
      "componentType": 5123,
      "count": 918,
      "min": [
        0
      ],
      "max": [
        276
      ],
      "type": "SCALAR",
      "bufferView": 3,
      "byteOffset": 86900
    },
    {
      "name": "glass_004_1_0_positions",
      "componentType": 5126,
      "count": 230,
      "min": [
        -18.681299209594727,
        125.46399688720703,
        -36.45249938964844
      ],
      "max": [
        -12.233499526977539,
        129.89700317382812,
        -31.934799194335938
      ],
      "type": "VEC3",
      "bufferView": 0,
      "byteOffset": 205056
    },
    {
      "name": "glass_004_1_0_normals",
      "componentType": 5126,
      "count": 230,
      "min": [
        -1,
        -0.7134287357330322,
        -0.7008801102638245
      ],
      "max": [
        0.9999999403953552,
        0.7134287357330322,
        0.7008801102638245
      ],
      "type": "VEC3",
      "bufferView": 1,
      "byteOffset": 205056
    },
    {
      "name": "glass_004_1_0_texcoords",
      "componentType": 5126,
      "count": 230,
      "min": [
        -32.23820114135742,
        -22.261699676513672
      ],
      "max": [
        32.240299224853516,
        22.138099670410156
      ],
      "type": "VEC2",
      "bufferView": 2,
      "byteOffset": 136704
    },
    {
      "name": "glass_004_1_0_indices",
      "componentType": 5123,
      "count": 462,
      "min": [
        0
      ],
      "max": [
        229
      ],
      "type": "SCALAR",
      "bufferView": 3,
      "byteOffset": 88736
    },
    {
      "name": "solid_027_1_0_positions",
      "componentType": 5126,
      "count": 252,
      "min": [
        -18.620100021362305,
        125.19999694824219,
        -36.11589813232422
      ],
      "max": [
        -12.2947998046875,
        129.5489959716797,
        -31.683900833129883
      ],
      "type": "VEC3",
      "bufferView": 0,
      "byteOffset": 207816
    },
    {
      "name": "solid_027_1_0_normals",
      "componentType": 5126,
      "count": 252,
      "min": [
        -1,
        -0.7133291363716125,
        -0.7011317610740662
      ],
      "max": [
        1,
        0.7133787274360657,
        0.7011317610740662
      ],
      "type": "VEC3",
      "bufferView": 1,
      "byteOffset": 207816
    },
    {
      "name": "solid_027_1_0_texcoords",
      "componentType": 5126,
      "count": 252,
      "min": [
        0.0843999981880188,
        0.11013299971818924
      ],
      "max": [
        0.9156010150909424,
        0.8898500204086304
      ],
      "type": "VEC2",
      "bufferView": 2,
      "byteOffset": 138544
    },
    {
      "name": "solid_027_1_0_indices",
      "componentType": 5123,
      "count": 462,
      "min": [
        0
      ],
      "max": [
        251
      ],
      "type": "SCALAR",
      "bufferView": 3,
      "byteOffset": 89660
    }
  ],
  "asset": {
    "generator": "obj2gltf",
    "version": "2.0"
  },
  "buffers": [
    {
      "name": "model-r",
      "byteLength": 652824,
      "uri": "model-r.bin"
    }
  ],
  "bufferViews": [
    {
      "name": "bufferView_0",
      "buffer": 0,
      "byteLength": 210840,
      "byteOffset": 0,
      "byteStride": 12,
      "target": 34962
    },
    {
      "name": "bufferView_1",
      "buffer": 0,
      "byteLength": 210840,
      "byteOffset": 210840,
      "byteStride": 12,
      "target": 34962
    },
    {
      "name": "bufferView_2",
      "buffer": 0,
      "byteLength": 140560,
      "byteOffset": 421680,
      "byteStride": 8,
      "target": 34962
    },
    {
      "name": "bufferView_3",
      "buffer": 0,
      "byteLength": 90584,
      "byteOffset": 562240,
      "target": 34963
    }
  ],
  "materials": [
    {
      "name": "default",
      "pbrMetallicRoughness": {
        "baseColorFactor": [
          0.5,
          0.5,
          0.5,
          1
        ],
        "metallicFactor": 0,
        "roughnessFactor": 1
      },
      "emissiveFactor": [
        0,
        0,
        0
      ],
      "alphaMode": "OPAQUE",
      "doubleSided": false
    }
  ],
  "meshes": [
    {
      "name": "solid_001_1",
      "primitives": [
        {
          "attributes": {
            "POSITION": 0,
            "NORMAL": 1,
            "TEXCOORD_0": 2
          },
          "indices": 3,
          "material": 0,
          "mode": 4
        }
      ]
    },
    {
      "name": "solid_002_1",
      "primitives": [
        {
          "attributes": {
            "POSITION": 4,
            "NORMAL": 5,
            "TEXCOORD_0": 6
          },
          "indices": 7,
          "material": 0,
          "mode": 4
        }
      ]
    },
    {
      "name": "solid_003_1",
      "primitives": [
        {
          "attributes": {
            "POSITION": 8,
            "NORMAL": 9,
            "TEXCOORD_0": 10
          },
          "indices": 11,
          "material": 0,
          "mode": 4
        }
      ]
    },
    {
      "name": "solid_004_1",
      "primitives": [
        {
          "attributes": {
            "POSITION": 12,
            "NORMAL": 13,
            "TEXCOORD_0": 14
          },
          "indices": 15,
          "material": 0,
          "mode": 4
        }
      ]
    },
    {
      "name": "solid_005_1",
      "primitives": [
        {
          "attributes": {
            "POSITION": 16,
            "NORMAL": 17,
            "TEXCOORD_0": 18
          },
          "indices": 19,
          "material": 0,
          "mode": 4
        }
      ]
    },
    {
      "name": "solid_006_1",
      "primitives": [
        {
          "attributes": {
            "POSITION": 20,
            "NORMAL": 21,
            "TEXCOORD_0": 22
          },
          "indices": 23,
          "material": 0,
          "mode": 4
        }
      ]
    },
    {
      "name": "solid_007_1",
      "primitives": [
        {
          "attributes": {
            "POSITION": 24,
            "NORMAL": 25,
            "TEXCOORD_0": 26
          },
          "indices": 27,
          "material": 0,
          "mode": 4
        }
      ]
    },
    {
      "name": "solid_008_1",
      "primitives": [
        {
          "attributes": {
            "POSITION": 28,
            "NORMAL": 29,
            "TEXCOORD_0": 30
          },
          "indices": 31,
          "material": 0,
          "mode": 4
        }
      ]
    },
    {
      "name": "solid_009_1",
      "primitives": [
        {
          "attributes": {
            "POSITION": 32,
            "NORMAL": 33,
            "TEXCOORD_0": 34
          },
          "indices": 35,
          "material": 0,
          "mode": 4
        }
      ]
    },
    {
      "name": "glass_005_1",
      "primitives": [
        {
          "attributes": {
            "POSITION": 36,
            "NORMAL": 37,
            "TEXCOORD_0": 38
          },
          "indices": 39,
          "material": 0,
          "mode": 4
        }
      ]
    },
    {
      "name": "solid_011_1",
      "primitives": [
        {
          "attributes": {
            "POSITION": 40,
            "NORMAL": 41,
            "TEXCOORD_0": 42
          },
          "indices": 43,
          "material": 0,
          "mode": 4
        }
      ]
    },
    {
      "name": "solid_012_1",
      "primitives": [
        {
          "attributes": {
            "POSITION": 44,
            "NORMAL": 45,
            "TEXCOORD_0": 46
          },
          "indices": 47,
          "material": 0,
          "mode": 4
        }
      ]
    },
    {
      "name": "solid_013_1",
      "primitives": [
        {
          "attributes": {
            "POSITION": 48,
            "NORMAL": 49,
            "TEXCOORD_0": 50
          },
          "indices": 51,
          "material": 0,
          "mode": 4
        }
      ]
    },
    {
      "name": "solid_014_1",
      "primitives": [
        {
          "attributes": {
            "POSITION": 52,
            "NORMAL": 53,
            "TEXCOORD_0": 54
          },
          "indices": 55,
          "material": 0,
          "mode": 4
        }
      ]
    },
    {
      "name": "glass_002_1",
      "primitives": [
        {
          "attributes": {
            "POSITION": 56,
            "NORMAL": 57,
            "TEXCOORD_0": 58
          },
          "indices": 59,
          "material": 0,
          "mode": 4
        }
      ]
    },
    {
      "name": "glass_003_1",
      "primitives": [
        {
          "attributes": {
            "POSITION": 60,
            "NORMAL": 61,
            "TEXCOORD_0": 62
          },
          "indices": 63,
          "material": 0,
          "mode": 4
        }
      ]
    },
    {
      "name": "glass_001_1",
      "primitives": [
        {
          "attributes": {
            "POSITION": 64,
            "NORMAL": 65,
            "TEXCOORD_0": 66
          },
          "indices": 67,
          "material": 0,
          "mode": 4
        }
      ]
    },
    {
      "name": "solid_018_1",
      "primitives": [
        {
          "attributes": {
            "POSITION": 68,
            "NORMAL": 69,
            "TEXCOORD_0": 70
          },
          "indices": 71,
          "material": 0,
          "mode": 4
        }
      ]
    },
    {
      "name": "solid_019_1",
      "primitives": [
        {
          "attributes": {
            "POSITION": 72,
            "NORMAL": 73,
            "TEXCOORD_0": 74
          },
          "indices": 75,
          "material": 0,
          "mode": 4
        }
      ]
    },
    {
      "name": "solid_020_1",
      "primitives": [
        {
          "attributes": {
            "POSITION": 76,
            "NORMAL": 77,
            "TEXCOORD_0": 78
          },
          "indices": 79,
          "material": 0,
          "mode": 4
        }
      ]
    },
    {
      "name": "solid_021_1",
      "primitives": [
        {
          "attributes": {
            "POSITION": 80,
            "NORMAL": 81,
            "TEXCOORD_0": 82
          },
          "indices": 83,
          "material": 0,
          "mode": 4
        }
      ]
    },
    {
      "name": "solid_022_1",
      "primitives": [
        {
          "attributes": {
            "POSITION": 84,
            "NORMAL": 85,
            "TEXCOORD_0": 86
          },
          "indices": 87,
          "material": 0,
          "mode": 4
        }
      ]
    },
    {
      "name": "solid_023_1",
      "primitives": [
        {
          "attributes": {
            "POSITION": 88,
            "NORMAL": 89,
            "TEXCOORD_0": 90
          },
          "indices": 91,
          "material": 0,
          "mode": 4
        }
      ]
    },
    {
      "name": "solid_024_1",
      "primitives": [
        {
          "attributes": {
            "POSITION": 92,
            "NORMAL": 93,
            "TEXCOORD_0": 94
          },
          "indices": 95,
          "material": 0,
          "mode": 4
        }
      ]
    },
    {
      "name": "solid_025_1",
      "primitives": [
        {
          "attributes": {
            "POSITION": 96,
            "NORMAL": 97,
            "TEXCOORD_0": 98
          },
          "indices": 99,
          "material": 0,
          "mode": 4
        }
      ]
    },
    {
      "name": "glass_004_1",
      "primitives": [
        {
          "attributes": {
            "POSITION": 100,
            "NORMAL": 101,
            "TEXCOORD_0": 102
          },
          "indices": 103,
          "material": 0,
          "mode": 4
        }
      ]
    },
    {
      "name": "solid_027_1",
      "primitives": [
        {
          "attributes": {
            "POSITION": 104,
            "NORMAL": 105,
            "TEXCOORD_0": 106
          },
          "indices": 107,
          "material": 0,
          "mode": 4
        }
      ]
    }
  ],
  "nodes": [
    {
      "name": "solid_001",
      "mesh": 0
    },
    {
      "name": "solid_002",
      "mesh": 1
    },
    {
      "name": "solid_003",
      "mesh": 2
    },
    {
      "name": "solid_004",
      "mesh": 3
    },
    {
      "name": "solid_005",
      "mesh": 4
    },
    {
      "name": "solid_006",
      "mesh": 5
    },
    {
      "name": "solid_007",
      "mesh": 6
    },
    {
      "name": "solid_008",
      "mesh": 7
    },
    {
      "name": "solid_009",
      "mesh": 8
    },
    {
      "name": "glass_005",
      "mesh": 9
    },
    {
      "name": "solid_011",
      "mesh": 10
    },
    {
      "name": "solid_012",
      "mesh": 11
    },
    {
      "name": "solid_013",
      "mesh": 12
    },
    {
      "name": "solid_014",
      "mesh": 13
    },
    {
      "name": "glass_002",
      "mesh": 14
    },
    {
      "name": "glass_003",
      "mesh": 15
    },
    {
      "name": "glass_001",
      "mesh": 16
    },
    {
      "name": "solid_018",
      "mesh": 17
    },
    {
      "name": "solid_019",
      "mesh": 18
    },
    {
      "name": "solid_020",
      "mesh": 19
    },
    {
      "name": "solid_021",
      "mesh": 20
    },
    {
      "name": "solid_022",
      "mesh": 21
    },
    {
      "name": "solid_023",
      "mesh": 22
    },
    {
      "name": "solid_024",
      "mesh": 23
    },
    {
      "name": "solid_025",
      "mesh": 24
    },
    {
      "name": "glass_004",
      "mesh": 25
    },
    {
      "name": "solid_027",
      "mesh": 26
    }
  ],
  "scene": 0,
  "scenes": [
    {
      "nodes": [
        0,
        1,
        2,
        3,
        4,
        5,
        6,
        7,
        8,
        9,
        10,
        11,
        12,
        13,
        14,
        15,
        16,
        17,
        18,
        19,
        20,
        21,
        22,
        23,
        24,
        25,
        26
      ]
    }
  ]
}
